<svg width="107" height="33" viewBox="0 0 107 33" fill="none" xmlns="http://www.w3.org/2000/svg">
<path d="M4.02808 4.51549C6.25474 2.366 9.27826 1.11139 12.3427 0.955331C13.3915 0.955331 14.4434 0.961693 15.4922 0.952148C15.4386 2.08899 15.4922 3.22901 15.4607 4.36579C15.3127 6.90694 14.3835 9.39076 12.8183 11.3842C10.7837 14.0655 7.67202 15.8646 4.36824 16.3296C2.92579 16.5652 1.46126 16.4155 0.00936441 16.4569C0.0345377 15.2055 -0.0441828 13.9508 0.0534704 12.7025C0.336937 9.60732 1.78254 6.64266 4.02808 4.51549Z" fill="#7F56D9"/>
<path d="M16.4635 0.952201C17.5879 0.964927 18.7123 0.945837 19.8398 0.958564C22.646 1.15916 25.4144 2.24823 27.5275 4.13661C29.8581 6.15868 31.4549 9.05012 31.8645 12.139C32.0437 13.5719 31.9307 15.0208 32 16.4602C31.0171 16.457 30.0379 16.4538 29.0549 16.4602C26.6395 16.3933 24.2648 15.6036 22.2428 14.2725C21.3106 13.5974 20.3531 12.9128 19.654 11.9766C18.1202 10.2443 17.0777 8.06934 16.684 5.77657C16.388 4.18434 16.5076 2.56034 16.4635 0.952201Z" fill="#7F56D9"/>
<path d="M0.0116361 17.3708C1.01004 17.4281 2.01158 17.323 3.00678 17.4345C7.268 17.5268 11.4033 19.9469 13.611 23.6313C14.8772 25.6947 15.5574 28.1405 15.4693 30.5703C15.4661 31.3662 15.4787 32.1589 15.4566 32.9521C13.8756 32.9042 12.2788 33.0346 10.7135 32.7257C7.23653 32.1336 4.03984 30.0413 2.11547 27.0545C0.657288 24.8828 -0.0702319 22.2301 0.00534131 19.6094C0.00534131 18.861 0.00534273 18.1159 0.0116361 17.3708Z" fill="#7F56D9"/>
<path d="M26.6784 17.7082C28.392 17.3229 30.1584 17.3866 31.9003 17.3866L31.976 17.463C31.9381 19.1284 32.0672 20.813 31.7365 22.4593C31.0405 26.1532 28.6219 29.4525 25.3683 31.2643C23.3432 32.4043 21.0189 32.9646 18.704 32.9392C17.9639 32.9425 17.2206 32.9263 16.4805 32.9489C16.4805 31.5701 16.4238 30.1848 16.5781 28.8124C16.9372 25.4908 18.7134 22.3988 21.2677 20.3099C22.8487 19.0488 24.7069 18.1349 26.6784 17.7082Z" fill="#7F56D9"/>
<path d="M46.94 24.2721C45.82 24.2721 44.84 24.0588 44 23.6321C43.1733 23.1921 42.5333 22.5721 42.08 21.7721C41.64 20.9721 41.42 20.0255 41.42 18.9321V9.73215H43.58V18.9321C43.58 20.0121 43.8733 20.8455 44.46 21.4321C45.0467 22.0055 45.8733 22.2921 46.94 22.2921C48.0067 22.2921 48.8333 22.0055 49.42 21.4321C50.0067 20.8455 50.3 20.0121 50.3 18.9321V9.73215H52.46V18.9321C52.46 20.0255 52.2333 20.9721 51.78 21.7721C51.34 22.5721 50.7067 23.1921 49.88 23.6321C49.0533 24.0588 48.0733 24.2721 46.94 24.2721ZM55.3997 23.9521V9.75215H57.5597V23.9521H55.3997ZM58.9898 23.9521L64.1098 9.75215H66.8498L71.9698 23.9521H69.6698L68.3698 20.2521H62.5698L61.2898 23.9521H58.9898ZM63.2498 18.2921H67.7098L65.4698 11.8121L63.2498 18.2921ZM72.9883 26.9521V13.3121H74.9883L75.0483 15.5921L74.8083 15.4721C75.0749 14.6855 75.5149 14.0921 76.1283 13.6921C76.7416 13.2788 77.4483 13.0721 78.2483 13.0721C79.2883 13.0721 80.1416 13.3321 80.8083 13.8521C81.4883 14.3588 81.9883 15.0321 82.3083 15.8721C82.6416 16.7121 82.8083 17.6321 82.8083 18.6321C82.8083 19.6321 82.6416 20.5521 82.3083 21.3921C81.9883 22.2321 81.4883 22.9121 80.8083 23.4321C80.1416 23.9388 79.2883 24.1921 78.2483 24.1921C77.7149 24.1921 77.2149 24.0988 76.7483 23.9121C76.2816 23.7255 75.8816 23.4655 75.5483 23.1321C75.2283 22.7855 75.0016 22.3788 74.8683 21.9121L75.1083 21.6721V26.9521H72.9883ZM77.8683 22.3521C78.7216 22.3521 79.3883 22.0255 79.8683 21.3721C80.3616 20.7188 80.6083 19.8055 80.6083 18.6321C80.6083 17.4588 80.3616 16.5455 79.8683 15.8921C79.3883 15.2388 78.7216 14.9121 77.8683 14.9121C77.3083 14.9121 76.8216 15.0521 76.4083 15.3321C75.9949 15.5988 75.6749 16.0121 75.4483 16.5721C75.2216 17.1321 75.1083 17.8188 75.1083 18.6321C75.1083 19.4455 75.2149 20.1321 75.4283 20.6921C75.6549 21.2521 75.9749 21.6721 76.3883 21.9521C76.8149 22.2188 77.3083 22.3521 77.8683 22.3521ZM84.4609 26.9521V13.3121H86.4609L86.5209 15.5921L86.2809 15.4721C86.5476 14.6855 86.9876 14.0921 87.6009 13.6921C88.2143 13.2788 88.9209 13.0721 89.7209 13.0721C90.7609 13.0721 91.6143 13.3321 92.2809 13.8521C92.9609 14.3588 93.4609 15.0321 93.7809 15.8721C94.1143 16.7121 94.2809 17.6321 94.2809 18.6321C94.2809 19.6321 94.1143 20.5521 93.7809 21.3921C93.4609 22.2321 92.9609 22.9121 92.2809 23.4321C91.6143 23.9388 90.7609 24.1921 89.7209 24.1921C89.1876 24.1921 88.6876 24.0988 88.2209 23.9121C87.7543 23.7255 87.3543 23.4655 87.0209 23.1321C86.7009 22.7855 86.4743 22.3788 86.3409 21.9121L86.5809 21.6721V26.9521H84.4609ZM89.3409 22.3521C90.1943 22.3521 90.8609 22.0255 91.3409 21.3721C91.8343 20.7188 92.0809 19.8055 92.0809 18.6321C92.0809 17.4588 91.8343 16.5455 91.3409 15.8921C90.8609 15.2388 90.1943 14.9121 89.3409 14.9121C88.7809 14.9121 88.2943 15.0521 87.8809 15.3321C87.4676 15.5988 87.1476 16.0121 86.9209 16.5721C86.6943 17.1321 86.5809 17.8188 86.5809 18.6321C86.5809 19.4455 86.6876 20.1321 86.9009 20.6921C87.1276 21.2521 87.4476 21.6721 87.8609 21.9521C88.2876 22.2188 88.7809 22.3521 89.3409 22.3521ZM94.5183 23.9521L99.2383 16.8321L94.5583 9.75215H97.0983L100.598 15.1521L104.038 9.75215H106.558L101.878 16.7921L106.618 23.9521H104.078L100.558 18.4721L97.0383 23.9521H94.5183Z" fill="#1B1B1B"/>
</svg>
