<svg width="38" height="39" viewBox="0 0 38 39" fill="none" xmlns="http://www.w3.org/2000/svg">
<g clip-path="url(#clip0_4907_2547)">
<path d="M8.16583 20.1476L2.39348 14.3753C0.851625 12.8334 0.00244141 10.7834 0.00244141 8.60284C0.00244141 4.10156 3.66455 0.439453 8.16583 0.439453C12.6672 0.439453 16.3292 4.10156 16.3292 8.60284C16.3292 10.7834 15.4801 12.8334 13.9382 14.3753L8.16583 20.1476ZM8.16583 2.66575C4.89213 2.66575 2.22874 5.32914 2.22874 8.60284C2.22874 10.1887 2.84631 11.6797 3.9677 12.801L8.16583 16.9992L12.364 12.801C13.4854 11.6797 14.103 10.1887 14.103 8.60284C14.103 5.32914 11.4396 2.66575 8.16583 2.66575Z" fill="#7F56D9"/>
<path d="M8.16572 12.3136C6.11968 12.3136 4.45508 10.649 4.45508 8.60298C4.45508 6.55694 6.11968 4.89233 8.16572 4.89233C10.2118 4.89233 11.8764 6.55694 11.8764 8.60298C11.8764 10.649 10.2118 12.3136 8.16572 12.3136ZM8.16572 7.11863C7.34726 7.11863 6.68138 7.78452 6.68138 8.60298C6.68138 9.42144 7.34726 10.0873 8.16572 10.0873C8.98418 10.0873 9.65007 9.42144 9.65007 8.60298C9.65007 7.78452 8.98418 7.11863 8.16572 7.11863Z" fill="#7F56D9"/>
<path d="M32.0606 38.4391L27.8623 34.241C26.7411 33.1196 26.1235 31.6287 26.1235 30.0428C26.1235 26.7691 28.7869 24.1057 32.0606 24.1057C35.3343 24.1057 37.9977 26.7691 37.9977 30.0428C37.9977 31.6286 37.3802 33.1195 36.2588 34.241L32.0606 38.4391ZM29.4366 32.6667L32.0606 35.2906L34.6845 32.6667C35.3854 31.9658 35.7714 31.0339 35.7714 30.0427C35.7714 27.9966 34.1067 26.3319 32.0606 26.3319C30.0145 26.3319 28.3498 27.9966 28.3498 30.0427C28.3498 31.0339 28.7359 31.9659 29.4366 32.6667Z" fill="#7F56D9"/>
<path d="M26.6439 38.4341H14.2172C10.2667 38.4341 7.05273 35.2201 7.05273 31.2696C7.05273 27.3191 10.2667 24.1051 14.2172 24.1051H18.348C19.5665 24.1051 20.5577 23.1139 20.5577 21.8954C20.5577 20.677 19.5665 19.6858 18.348 19.6858H14.0288V17.4595H18.348C20.794 17.4595 22.784 19.4494 22.784 21.8954C22.784 24.3415 20.794 26.3314 18.348 26.3314H14.2172C11.4943 26.3314 9.27903 28.5467 9.27903 31.2696C9.27903 33.9925 11.4942 36.2078 14.2172 36.2078H26.6439V38.4341H26.6439Z" fill="#7F56D9"/>
</g>
<defs>
<clipPath id="clip0_4907_2547">
<rect width="38" height="38" fill="white" transform="translate(0 0.439453)"/>
</clipPath>
</defs>
</svg>
