<svg width="32" height="33" viewBox="0 0 32 33" fill="none" xmlns="http://www.w3.org/2000/svg">
<path d="M25.6294 18.5409C25.4114 18.5409 25.2109 18.3969 25.1489 18.1764L25.0129 17.6954C24.9384 17.4299 25.0929 17.1534 25.3584 17.0784C25.6219 17.0054 25.9004 17.1574 25.9749 17.4239L26.1109 17.9049C26.1854 18.1704 26.0309 18.4469 25.7654 18.5214C25.7199 18.5349 25.6749 18.5409 25.6294 18.5409Z" fill="#414651"/>
<path d="M25.2452 22.9934C25.1787 22.9934 25.1107 22.9804 25.0462 22.9519C24.7927 22.8414 24.6772 22.5464 24.7872 22.2939C25.1047 21.5664 25.2842 20.7954 25.3212 20.0019C25.3342 19.7259 25.5797 19.5139 25.8442 19.5259C26.1202 19.5389 26.3332 19.7729 26.3202 20.0489C26.2772 20.9644 26.0697 21.8539 25.7042 22.6934C25.6222 22.8809 25.4382 22.9934 25.2452 22.9934Z" fill="#414651"/>
<path d="M18.8229 27.1954C18.1954 27.1954 17.5669 27.1174 16.9559 26.9594C14.5949 26.3499 12.6764 24.5839 11.8244 22.2354C10.9729 19.8864 11.3129 17.3019 12.7339 15.3219C14.1399 13.3634 16.4554 12.1999 18.9234 12.2459C21.3954 12.2784 23.6804 13.4899 25.0349 15.4864C25.1904 15.7149 25.1304 16.0259 24.9019 16.1809C24.6734 16.3364 24.3629 16.2764 24.2074 16.0479C23.0359 14.3214 21.0554 13.2744 18.9099 13.2459C18.8799 13.2454 18.8504 13.2454 18.8209 13.2454C16.7109 13.2454 14.7444 14.2349 13.5459 15.9049C12.3169 17.6169 12.0249 19.8559 12.7639 21.8944C13.5029 23.9329 15.1634 25.4644 17.2049 25.9904C18.6019 26.3509 20.1004 26.2319 21.4239 25.6554C21.6774 25.5434 21.9719 25.6614 22.0819 25.9144C22.1924 26.1679 22.0759 26.4624 21.8229 26.5724C20.8764 26.9859 19.8504 27.1954 18.8229 27.1954Z" fill="#414651"/>
<path d="M4 8.3689H3C2.724 8.3689 2.5 8.1449 2.5 7.8689C2.5 7.5929 2.724 7.3689 3 7.3689H4C4.276 7.3689 4.5 7.5929 4.5 7.8689C4.5 8.1449 4.276 8.3689 4 8.3689Z" fill="#414651"/>
<path d="M6.5 8.3689H6C5.724 8.3689 5.5 8.1449 5.5 7.8689C5.5 7.5929 5.724 7.3689 6 7.3689H6.5C6.776 7.3689 7 7.5929 7 7.8689C7 8.1449 6.776 8.3689 6.5 8.3689Z" fill="#414651"/>
<path d="M29 8.3689H8.5C8.224 8.3689 8 8.1449 8 7.8689C8 7.5929 8.224 7.3689 8.5 7.3689H29C29.2765 7.3689 29.5 7.5929 29.5 7.8689C29.5 8.1449 29.2765 8.3689 29 8.3689Z" fill="#414651"/>
<path d="M18.7987 24.6934C18.7982 24.6934 18.7982 24.6934 18.7987 24.6934C18.3507 24.6934 17.9057 24.6324 17.4762 24.5119C15.0112 23.8204 13.4457 21.3039 13.9122 18.7824C14.3702 16.3084 16.7382 14.4824 19.2917 14.7189C21.8357 14.9524 23.8287 17.1394 23.8287 19.6974C23.8287 20.3084 23.7192 20.9054 23.5042 21.4724C22.7722 23.3994 20.8812 24.6934 18.7987 24.6934ZM18.8442 15.6979C16.9377 15.6979 15.2402 17.1024 14.8957 18.9639C14.5222 20.9819 15.7747 22.9959 17.7467 23.5489C18.0882 23.6444 18.4422 23.6934 18.7987 23.6934C20.4692 23.6934 21.9847 22.6584 22.5702 21.1169C22.7422 20.6639 22.8297 20.1859 22.8297 19.6969C22.8297 17.6504 21.2357 15.9014 19.2007 15.7144C19.0807 15.7034 18.9622 15.6979 18.8442 15.6979Z" fill="#414651"/>
<path d="M27.2235 30.3604C27.1845 30.3604 27.146 30.3594 27.107 30.3574C26.471 30.3254 25.8755 30.0314 25.474 29.5514C25.297 29.3394 25.3245 29.0239 25.5365 28.8474C25.749 28.6694 26.064 28.6989 26.2405 28.9099C26.464 29.1769 26.798 29.3404 27.157 29.3589C27.523 29.3729 27.8655 29.2474 28.1155 29.0039C28.3685 28.7574 28.505 28.4059 28.4905 28.0394C28.4765 27.6744 28.313 27.3359 28.042 27.1104C27.8295 26.9334 27.801 26.6189 27.9775 26.4064C28.1535 26.1944 28.469 26.1649 28.6815 26.3419C29.17 26.7484 29.464 27.3524 29.49 27.9999C29.5155 28.6489 29.269 29.2754 28.8135 29.7194C28.393 30.1304 27.8195 30.3604 27.2235 30.3604Z" fill="#414651"/>
<path d="M28.3615 27.2264C28.2485 27.2264 28.135 27.1884 28.041 27.1104L25.0825 24.6384C24.8705 24.4614 24.843 24.1459 25.0195 23.9339C25.197 23.7224 25.5115 23.6944 25.724 23.8709L28.6825 26.3429C28.8945 26.5199 28.922 26.8354 28.7455 27.0474C28.6465 27.1654 28.5045 27.2264 28.3615 27.2264Z" fill="#414651"/>
<path d="M23.3861 26.7723C23.2276 26.7723 23.0716 26.6973 22.9746 26.5568C22.8176 26.3303 22.8741 26.0188 23.1011 25.8608C23.8431 25.3463 24.4796 24.7098 24.9921 23.9693C25.1486 23.7428 25.4601 23.6853 25.6881 23.8428C25.9151 23.9998 25.9716 24.3118 25.8146 24.5388C25.2336 25.3783 24.5121 26.0998 23.6706 26.6833C23.5841 26.7433 23.4846 26.7723 23.3861 26.7723Z" fill="#414651"/>
<path d="M25.8581 29.7309C25.7151 29.7309 25.5731 29.6699 25.4736 29.5519L23.0021 26.5934C22.8251 26.3814 22.8531 26.0659 23.0651 25.8889C23.2776 25.7119 23.5921 25.7404 23.7696 25.9519L26.2411 28.9104C26.4181 29.1224 26.3901 29.4379 26.1781 29.6149C26.0846 29.6924 25.9706 29.7309 25.8581 29.7309Z" fill="#414651"/>
<path d="M22.6001 27.0184C22.1161 27.0184 21.6351 26.8319 21.2716 26.4679C21.0761 26.2729 21.0761 25.9564 21.2716 25.7609C21.4671 25.5654 21.7831 25.5654 21.9786 25.7609C22.2791 26.0614 22.7511 26.1034 23.1011 25.8614C23.3271 25.7029 23.6396 25.7604 23.7966 25.9874C23.9541 26.2139 23.8976 26.5254 23.6706 26.6829C23.3461 26.9079 22.9721 27.0184 22.6001 27.0184Z" fill="#414651"/>
<path d="M25.4032 24.7544C25.3052 24.7544 25.2052 24.7254 25.1192 24.6649C24.8922 24.5079 24.8357 24.1959 24.9932 23.9694C25.2352 23.6199 25.1927 23.1474 24.8927 22.8469C24.6972 22.6514 24.6972 22.3349 24.8927 22.1399C25.0882 21.9444 25.4042 21.9444 25.5997 22.1399C26.2422 22.7829 26.3327 23.7924 25.8147 24.5389C25.7177 24.6789 25.5617 24.7544 25.4032 24.7544Z" fill="#414651"/>
<path d="M3 6.3689C2.724 6.3689 2.5 6.1449 2.5 5.8689C2.5 4.4904 3.6215 3.3689 5 3.3689C5.276 3.3689 5.5 3.5929 5.5 3.8689C5.5 4.1449 5.276 4.3689 5 4.3689C4.173 4.3689 3.5 5.0419 3.5 5.8689C3.5 6.1449 3.276 6.3689 3 6.3689Z" fill="#414651"/>
<path d="M27 4.3689H5C4.724 4.3689 4.5 4.1449 4.5 3.8689C4.5 3.5929 4.724 3.3689 5 3.3689H27C27.2765 3.3689 27.5 3.5929 27.5 3.8689C27.5 4.1449 27.2765 4.3689 27 4.3689Z" fill="#414651"/>
<path d="M29 6.3689C28.7235 6.3689 28.5 6.1449 28.5 5.8689C28.5 5.0419 27.827 4.3689 27 4.3689C26.7235 4.3689 26.5 4.1449 26.5 3.8689C26.5 3.5929 26.7235 3.3689 27 3.3689C28.3785 3.3689 29.5 4.4904 29.5 5.8689C29.5 6.1449 29.2765 6.3689 29 6.3689Z" fill="#414651"/>
<path d="M29 24.3689C28.7235 24.3689 28.5 24.1454 28.5 23.8689V5.8689C28.5 5.5929 28.7235 5.3689 29 5.3689C29.2765 5.3689 29.5 5.5929 29.5 5.8689V23.8689C29.5 24.1454 29.2765 24.3689 29 24.3689Z" fill="#414651"/>
<path d="M3 24.3689C2.724 24.3689 2.5 24.1454 2.5 23.8689V5.8689C2.5 5.5929 2.724 5.3689 3 5.3689C3.276 5.3689 3.5 5.5929 3.5 5.8689V23.8689C3.5 24.1454 3.276 24.3689 3 24.3689Z" fill="#414651"/>
<path d="M5 26.3689C3.6215 26.3689 2.5 25.2474 2.5 23.8689C2.5 23.5924 2.724 23.3689 3 23.3689C3.276 23.3689 3.5 23.5924 3.5 23.8689C3.5 24.6959 4.173 25.3689 5 25.3689C5.276 25.3689 5.5 25.5924 5.5 25.8689C5.5 26.1454 5.276 26.3689 5 26.3689Z" fill="#414651"/>
<path d="M7 6.3689H5C4.724 6.3689 4.5 6.1449 4.5 5.8689C4.5 5.5929 4.724 5.3689 5 5.3689H7C7.276 5.3689 7.5 5.5929 7.5 5.8689C7.5 6.1449 7.276 6.3689 7 6.3689Z" fill="#414651"/>
<path d="M15 6.3689H9C8.724 6.3689 8.5 6.1449 8.5 5.8689C8.5 5.5929 8.724 5.3689 9 5.3689H15C15.276 5.3689 15.5 5.5929 15.5 5.8689C15.5 6.1449 15.276 6.3689 15 6.3689Z" fill="#414651"/>
<path d="M27.3067 26.3449C27.0647 26.3449 26.8517 26.1684 26.8132 25.9214C26.7707 25.6484 26.9577 25.3929 27.2307 25.3504C27.9662 25.2364 28.5002 24.6134 28.5002 23.8689C28.5002 23.5924 28.7237 23.3689 29.0002 23.3689C29.2767 23.3689 29.5002 23.5924 29.5002 23.8689C29.5002 25.1094 28.6102 26.1489 27.3842 26.3389C27.3582 26.3429 27.3322 26.3449 27.3067 26.3449Z" fill="#414651"/>
<path d="M15.525 26.3689H5C4.724 26.3689 4.5 26.1454 4.5 25.8689C4.5 25.5924 4.724 25.3689 5 25.3689H15.525C15.801 25.3689 16.025 25.5924 16.025 25.8689C16.025 26.1454 15.8015 26.3689 15.525 26.3689Z" fill="#414651"/>
<path d="M10.2845 17.3689H6C5.724 17.3689 5.5 17.1449 5.5 16.8689C5.5 16.5929 5.724 16.3689 6 16.3689H10.2845C10.5605 16.3689 10.7845 16.5929 10.7845 16.8689C10.7845 17.1449 10.5605 17.3689 10.2845 17.3689Z" fill="#414651"/>
<path d="M11.2335 15.3689H6C5.724 15.3689 5.5 15.1449 5.5 14.8689C5.5 14.5929 5.724 14.3689 6 14.3689H11.2335C11.5095 14.3689 11.7335 14.5929 11.7335 14.8689C11.7335 15.1449 11.5095 15.3689 11.2335 15.3689Z" fill="#414651"/>
<path d="M12.9655 13.3689H6C5.724 13.3689 5.5 13.1449 5.5 12.8689C5.5 12.5929 5.724 12.3689 6 12.3689H12.9655C13.2415 12.3689 13.4655 12.5929 13.4655 12.8689C13.4655 13.1449 13.2415 13.3689 12.9655 13.3689Z" fill="#414651"/>
<path d="M12.9655 11.3689H6C5.724 11.3689 5.5 11.1449 5.5 10.8689C5.5 10.5929 5.724 10.3689 6 10.3689H12.9655C13.2415 10.3689 13.4655 10.5929 13.4655 10.8689C13.4655 11.1449 13.2415 11.3689 12.9655 11.3689Z" fill="#414651"/>
</svg>
