<svg width="120" height="41" viewBox="0 0 120 41" fill="none" xmlns="http://www.w3.org/2000/svg">
<rect x="0.5" y="1.45215" width="119" height="39" rx="6.5" fill="black"/>
<rect x="0.5" y="1.45215" width="119" height="39" rx="6.5" stroke="#A6A6A6"/>
<path d="M81.5257 20.1535V22.4445H80.0896V23.947H81.5257V29.0519C81.5257 30.7951 82.3143 31.4924 84.2981 31.4924C84.6468 31.4924 84.9788 31.4509 85.2693 31.4011V29.9152C85.0203 29.9401 84.8626 29.9567 84.5887 29.9567C83.7005 29.9567 83.3104 29.5417 83.3104 28.5954V23.947H85.2693V22.4445H83.3104V20.1535H81.5257Z" fill="white"/>
<path d="M90.3232 31.6169C92.9628 31.6169 94.5815 29.8488 94.5815 26.9186C94.5815 24.0051 92.9545 22.2287 90.3232 22.2287C87.6835 22.2287 86.0566 24.0051 86.0566 26.9186C86.0566 29.8488 87.6752 31.6169 90.3232 31.6169ZM90.3232 30.0314C88.7709 30.0314 87.8994 28.8942 87.8994 26.9186C87.8994 24.9596 88.7709 23.8141 90.3232 23.8141C91.8671 23.8141 92.747 24.9596 92.747 26.9186C92.747 28.8859 91.8671 30.0314 90.3232 30.0314Z" fill="white"/>
<path d="M95.9664 31.4426H97.7511V26.1052C97.7511 24.8351 98.7056 23.9802 100.059 23.9802C100.374 23.9802 100.905 24.0383 101.055 24.0881V22.3283C100.864 22.2785 100.524 22.2536 100.258 22.2536C99.0792 22.2536 98.0748 22.9011 97.8175 23.7892H97.6846V22.403H95.9664V31.4426Z" fill="white"/>
<path d="M105.486 23.7477C106.806 23.7477 107.669 24.6691 107.711 26.0886H103.145C103.245 24.6774 104.166 23.7477 105.486 23.7477ZM107.702 29.0021C107.37 29.7077 106.632 30.0978 105.552 30.0978C104.125 30.0978 103.203 29.0934 103.145 27.508V27.4084H109.529V26.7858C109.529 23.947 108.009 22.2287 105.494 22.2287C102.946 22.2287 101.327 24.0632 101.327 26.9518C101.327 29.8405 102.913 31.6169 105.503 31.6169C107.57 31.6169 109.014 30.6208 109.421 29.0021H107.702Z" fill="white"/>
<path d="M69.8221 28.1044C69.9598 30.3241 71.8095 31.7437 74.5626 31.7437C77.505 31.7437 79.3462 30.2553 79.3462 27.8807C79.3462 26.0137 78.2966 24.9813 75.7499 24.3877L74.382 24.0521C72.7645 23.6736 72.1106 23.166 72.1106 22.2798C72.1106 21.1614 73.1259 20.4301 74.6487 20.4301C76.0941 20.4301 77.0921 21.1442 77.2727 22.2884H79.1483C79.0365 20.1978 77.1953 18.7266 74.6745 18.7266C71.9644 18.7266 70.1576 20.1978 70.1576 22.4089C70.1576 24.2328 71.1815 25.3169 73.427 25.8417L75.0272 26.2288C76.6705 26.616 77.3932 27.1838 77.3932 28.1302C77.3932 29.2315 76.2575 30.0316 74.7089 30.0316C73.0484 30.0316 71.8955 29.2831 71.7321 28.1044H69.8221Z" fill="white"/>
<path d="M51.3348 22.2536C50.1063 22.2536 49.0437 22.8679 48.4959 23.8971H48.3631V22.403H46.6448V34.4474H48.4295V30.0729H48.5706C49.0437 31.0275 50.0647 31.592 51.3514 31.592C53.6341 31.592 55.0867 29.7907 55.0867 26.9186C55.0867 24.0466 53.6341 22.2536 51.3348 22.2536ZM50.8284 29.9899C49.3343 29.9899 48.3963 28.8112 48.3963 26.9269C48.3963 25.0344 49.3343 23.8556 50.8367 23.8556C52.3475 23.8556 53.2522 25.0095 53.2522 26.9186C53.2522 28.8361 52.3475 29.9899 50.8284 29.9899Z" fill="white"/>
<path d="M61.3316 22.2536C60.103 22.2536 59.0405 22.8679 58.4927 23.8971H58.3599V22.403H56.6416V34.4474H58.4263V30.0729H58.5674C59.0405 31.0275 60.0615 31.592 61.3482 31.592C63.6309 31.592 65.0835 29.7907 65.0835 26.9186C65.0835 24.0466 63.6309 22.2536 61.3316 22.2536ZM60.8252 29.9899C59.3311 29.9899 58.3931 28.8112 58.3931 26.9269C58.3931 25.0344 59.3311 23.8556 60.8335 23.8556C62.3443 23.8556 63.249 25.0095 63.249 26.9186C63.249 28.8361 62.3443 29.9899 60.8252 29.9899Z" fill="white"/>
<path d="M43.4428 31.4426H45.4905L41.008 19.0277H38.9346L34.4521 31.4426H36.431L37.5752 28.1474H42.3072L43.4428 31.4426ZM39.8724 21.2818H40.0186L41.8168 26.53H38.0656L39.8724 21.2818Z" fill="white"/>
<path d="M35.6514 9.66284V15.6519H37.8137C39.5984 15.6519 40.6318 14.552 40.6318 12.6387C40.6318 10.7544 39.5901 9.66284 37.8137 9.66284H35.6514ZM36.5811 10.5095H37.71C38.9509 10.5095 39.6855 11.2981 39.6855 12.6511C39.6855 14.0249 38.9634 14.8052 37.71 14.8052H36.5811V10.5095Z" fill="white"/>
<path d="M43.7969 15.739C45.1167 15.739 45.9261 14.855 45.9261 13.3899C45.9261 11.9331 45.1126 11.0449 43.7969 11.0449C42.4771 11.0449 41.6636 11.9331 41.6636 13.3899C41.6636 14.855 42.4729 15.739 43.7969 15.739ZM43.7969 14.9463C43.0208 14.9463 42.585 14.3777 42.585 13.3899C42.585 12.4104 43.0208 11.8376 43.7969 11.8376C44.5689 11.8376 45.0088 12.4104 45.0088 13.3899C45.0088 14.3735 44.5689 14.9463 43.7969 14.9463Z" fill="white"/>
<path d="M52.8182 11.1321H51.9259L51.1207 14.5811H51.0501L50.1205 11.1321H49.2655L48.3358 14.5811H48.2694L47.4601 11.1321H46.5553L47.8004 15.6519H48.7176L49.6473 12.3232H49.7179L50.6517 15.6519H51.5772L52.8182 11.1321Z" fill="white"/>
<path d="M53.8458 15.6519H54.7382V13.0081C54.7382 12.3025 55.1574 11.8625 55.8173 11.8625C56.4772 11.8625 56.7926 12.2236 56.7926 12.95V15.6519H57.685V12.7258C57.685 11.6509 57.1288 11.0449 56.1203 11.0449C55.4396 11.0449 54.9914 11.3479 54.7714 11.8501H54.705V11.1321H53.8458V15.6519Z" fill="white"/>
<path d="M59.0903 15.6519H59.9826V9.36816H59.0903V15.6519Z" fill="white"/>
<path d="M63.3386 15.739C64.6584 15.739 65.4678 14.855 65.4678 13.3899C65.4678 11.9331 64.6543 11.0449 63.3386 11.0449C62.0188 11.0449 61.2053 11.9331 61.2053 13.3899C61.2053 14.855 62.0146 15.739 63.3386 15.739ZM63.3386 14.9463C62.5625 14.9463 62.1267 14.3777 62.1267 13.3899C62.1267 12.4104 62.5625 11.8376 63.3386 11.8376C64.1106 11.8376 64.5505 12.4104 64.5505 13.3899C64.5505 14.3735 64.1106 14.9463 63.3386 14.9463Z" fill="white"/>
<path d="M68.1265 14.9753C67.6409 14.9753 67.2881 14.7388 67.2881 14.332C67.2881 13.9336 67.5704 13.7219 68.1929 13.6804L69.2969 13.6099V13.9875C69.2969 14.5479 68.7989 14.9753 68.1265 14.9753ZM67.8982 15.7266C68.4917 15.7266 68.9856 15.4692 69.2554 15.0168H69.326V15.6519H70.1851V12.564C70.1851 11.6094 69.5459 11.0449 68.4129 11.0449C67.3877 11.0449 66.6573 11.543 66.566 12.3191H67.4292C67.5289 11.9995 67.8733 11.8169 68.3714 11.8169C68.9815 11.8169 69.2969 12.0867 69.2969 12.564V12.9541L68.0726 13.0247C66.9976 13.0911 66.3916 13.5601 66.3916 14.3735C66.3916 15.1995 67.0267 15.7266 67.8982 15.7266Z" fill="white"/>
<path d="M73.2132 15.7266C73.8358 15.7266 74.3629 15.4319 74.6327 14.938H74.7032V15.6519H75.5582V9.36816H74.6659V11.8501H74.5995C74.3546 11.3521 73.8316 11.0574 73.2132 11.0574C72.0719 11.0574 71.3373 11.9622 71.3373 13.3899C71.3373 14.8218 72.0636 15.7266 73.2132 15.7266ZM73.4664 11.8584C74.2135 11.8584 74.6825 12.4519 74.6825 13.394C74.6825 14.3403 74.2176 14.9255 73.4664 14.9255C72.711 14.9255 72.2586 14.3486 72.2586 13.3899C72.2586 12.4395 72.7152 11.8584 73.4664 11.8584Z" fill="white"/>
<path d="M81.3447 15.739C82.6645 15.739 83.4738 14.855 83.4738 13.3899C83.4738 11.9331 82.6604 11.0449 81.3447 11.0449C80.0249 11.0449 79.2114 11.9331 79.2114 13.3899C79.2114 14.855 80.0207 15.739 81.3447 15.739ZM81.3447 14.9463C80.5686 14.9463 80.1328 14.3777 80.1328 13.3899C80.1328 12.4104 80.5686 11.8376 81.3447 11.8376C82.1166 11.8376 82.5566 12.4104 82.5566 13.3899C82.5566 14.3735 82.1166 14.9463 81.3447 14.9463Z" fill="white"/>
<path d="M84.655 15.6519H85.5474V13.0081C85.5474 12.3025 85.9666 11.8625 86.6265 11.8625C87.2864 11.8625 87.6018 12.2236 87.6018 12.95V15.6519H88.4941V12.7258C88.4941 11.6509 87.938 11.0449 86.9294 11.0449C86.2488 11.0449 85.8005 11.3479 85.5806 11.8501H85.5142V11.1321H84.655V15.6519Z" fill="white"/>
<path d="M92.6039 10.0073V11.1528H91.8858V11.9041H92.6039V14.4565C92.6039 15.3281 92.9981 15.6768 93.9901 15.6768C94.1644 15.6768 94.3304 15.656 94.4757 15.6311V14.8882C94.3512 14.9006 94.2723 14.9089 94.1353 14.9089C93.6913 14.9089 93.4962 14.7014 93.4962 14.2283V11.9041H94.4757V11.1528H93.4962V10.0073H92.6039Z" fill="white"/>
<path d="M95.6735 15.6519H96.5658V13.0122C96.5658 12.3274 96.9726 11.8667 97.703 11.8667C98.3339 11.8667 98.6701 12.2319 98.6701 12.9541V15.6519H99.5624V12.7341C99.5624 11.6592 98.9689 11.0491 98.006 11.0491C97.3253 11.0491 96.848 11.3521 96.6281 11.8584H96.5575V9.36816H95.6735V15.6519Z" fill="white"/>
<path d="M102.781 11.8044C103.441 11.8044 103.873 12.2651 103.894 12.9749H101.611C101.661 12.2693 102.122 11.8044 102.781 11.8044ZM103.89 14.4316C103.724 14.7844 103.354 14.9795 102.815 14.9795C102.101 14.9795 101.64 14.4773 101.611 13.6846V13.6348H104.803V13.3235C104.803 11.9041 104.043 11.0449 102.786 11.0449C101.511 11.0449 100.702 11.9622 100.702 13.4065C100.702 14.8508 101.495 15.739 102.79 15.739C103.823 15.739 104.545 15.241 104.749 14.4316H103.89Z" fill="white"/>
<path d="M24.769 21.2532C24.7907 19.5722 25.6934 17.9816 27.1256 17.1012C26.2221 15.8108 24.7088 14.9927 23.1344 14.9435C21.4552 14.7672 19.8272 15.9483 18.9715 15.9483C18.0992 15.9483 16.7817 14.961 15.363 14.9902C13.5137 15.0499 11.7898 16.1013 10.8901 17.718C8.95607 21.0664 10.3987 25.9875 12.2513 28.6941C13.1782 30.0195 14.2615 31.4999 15.6789 31.4474C17.066 31.3899 17.584 30.5629 19.2583 30.5629C20.9171 30.5629 21.4031 31.4474 22.8493 31.414C24.3377 31.3899 25.2754 30.0828 26.1698 28.7449C26.8358 27.8005 27.3483 26.7568 27.6882 25.6524C25.9391 24.9126 24.771 23.1523 24.769 21.2532Z" fill="white"/>
<path d="M22.0373 13.1635C22.8489 12.1893 23.2487 10.9371 23.1518 9.67285C21.912 9.80307 20.7668 10.3956 19.9443 11.3325C19.14 12.2478 18.7214 13.4779 18.8006 14.6939C20.0408 14.7066 21.2601 14.1301 22.0373 13.1635Z" fill="white"/>
</svg>
