<svg width="36" height="37" viewBox="0 0 36 37" fill="none" xmlns="http://www.w3.org/2000/svg">
<g clip-path="url(#clip0_4907_2679)">
<path d="M1.05469 36.2832H11.8179C12.4004 36.2832 12.8726 35.811 12.8726 35.2285V34.0535C12.8726 31.6152 11.5097 29.4893 9.50583 28.3974C10.2175 27.6419 10.6551 26.6253 10.6551 25.5078C10.6551 23.1816 8.76256 21.2891 6.43634 21.2891C4.11012 21.2891 2.21759 23.1816 2.21759 25.5078C2.21759 26.6253 2.65514 27.6419 3.36684 28.3974C1.36287 29.4893 0 31.6152 0 34.0535V35.2285C0 35.811 0.472219 36.2832 1.05469 36.2832ZM4.32696 25.5078C4.32696 24.3447 5.27323 23.3984 6.43634 23.3984C7.59945 23.3984 8.54571 24.3447 8.54571 25.5078C8.54571 26.6709 7.59945 27.6172 6.43634 27.6172C5.27323 27.6172 4.32696 26.6709 4.32696 25.5078ZM6.43634 29.7266C8.69597 29.7266 10.7632 31.4979 10.7632 34.1738H2.10938C2.10938 31.5119 4.16461 29.7266 6.43634 29.7266Z" fill="#7F56D9"/>
<path d="M32.6332 28.3974C33.3449 27.6419 33.7825 26.6253 33.7825 25.5078C33.7825 23.1816 31.8899 21.2891 29.5637 21.2891C27.2375 21.2891 25.345 23.1816 25.345 25.5078C25.345 26.6253 25.7825 27.6419 26.4942 28.3974C24.4903 29.4893 23.1274 31.6152 23.1274 34.0535V35.2285C23.1274 35.811 23.5997 36.2832 24.1821 36.2832H34.9453C35.5278 36.2832 36 35.811 36 35.2285V34.0535C36 31.6152 34.6371 29.4893 32.6332 28.3974ZM27.4543 25.5078C27.4543 24.3447 28.4005 23.3984 29.5636 23.3984C30.7267 23.3984 31.673 24.3447 31.673 25.5078C31.673 26.6709 30.7267 27.6172 29.5636 27.6172C28.4005 27.6172 27.4543 26.6709 27.4543 25.5078ZM33.8906 34.1738H25.2367C25.2367 31.5119 27.292 29.7266 29.5636 29.7266C31.8232 29.7266 33.8906 31.4977 33.8906 34.1738Z" fill="#7F56D9"/>
<path d="M24.4366 14.2227V13.0476C24.4366 10.6094 23.0737 8.48347 21.0698 7.39159C21.7814 6.63601 22.219 5.61943 22.219 4.50195C22.219 2.17573 20.3264 0.283203 18.0002 0.283203C15.674 0.283203 13.7815 2.17573 13.7815 4.50195C13.7815 5.61943 14.219 6.63601 14.9307 7.39159C12.9268 8.48347 11.564 10.6094 11.564 13.0476V14.2227C11.564 14.8051 12.0362 15.2773 12.6187 15.2773H23.3819C23.9643 15.2773 24.4366 14.8051 24.4366 14.2227ZM15.8909 4.50195C15.8909 3.33884 16.8371 2.39258 18.0002 2.39258C19.1633 2.39258 20.1096 3.33884 20.1096 4.50195C20.1096 5.66506 19.1633 6.61133 18.0002 6.61133C16.8371 6.61133 15.8909 5.66506 15.8909 4.50195ZM22.3272 13.168H13.6733C13.6733 10.506 15.7285 8.7207 18.0002 8.7207C20.2597 8.7207 22.3272 10.4919 22.3272 13.168Z" fill="#7F56D9"/>
<path d="M22.2608 26.9353C20.8829 27.388 19.4299 27.6174 17.9424 27.6174C16.5069 27.6174 15.1013 27.403 13.7646 26.9803C13.2091 26.8048 12.6165 27.1124 12.441 27.6678C12.2653 28.2231 12.5732 28.8158 13.1285 28.9914C14.6711 29.4793 16.2908 29.7267 17.9423 29.7267C19.6539 29.7267 21.3283 29.4618 22.9191 28.9393C23.4725 28.7575 23.7737 28.1615 23.592 27.6082C23.4102 27.0548 22.8142 26.7534 22.2608 26.9353Z" fill="#7F56D9"/>
<path d="M8.27794 9.02382C7.11314 10.1466 6.12293 11.4519 5.33479 12.9035C4.51804 14.4079 3.95189 16.0058 3.65208 17.653C3.53458 18.2985 4.02993 18.8967 4.69094 18.8967C5.19072 18.8967 5.63468 18.5398 5.72735 18.0307C5.98708 16.6039 6.47871 15.2174 7.18851 13.91C7.87357 12.6484 8.73258 11.5154 9.74184 10.5426C10.1612 10.1383 10.1735 9.47066 9.76926 9.05125C9.36497 8.6319 8.69735 8.6196 8.27794 9.02382Z" fill="#7F56D9"/>
<path d="M27.7222 9.02385C27.3028 8.61955 26.6351 8.63193 26.2309 9.05127C25.8267 9.47069 25.8389 10.1384 26.2583 10.5426C27.2676 11.5154 28.1266 12.6484 28.8116 13.9101C29.5215 15.2175 30.0131 16.604 30.2728 18.0307C30.377 18.6032 30.9254 18.9838 31.4993 18.8795C32.0723 18.7752 32.4523 18.226 32.3481 17.653C32.0483 16.0058 31.4821 14.4079 30.6653 12.9036C29.8772 11.452 28.887 10.1466 27.7222 9.02385Z" fill="#7F56D9"/>
</g>
<defs>
<clipPath id="clip0_4907_2679">
<rect width="36" height="36" fill="white" transform="translate(0 0.283203)"/>
</clipPath>
</defs>
</svg>
