<svg width="32" height="33" viewBox="0 0 32 33" fill="none" xmlns="http://www.w3.org/2000/svg">
<path d="M28.4799 8.76007C28.196 8.68543 27.8943 8.7255 27.6398 8.87161C27.3853 9.01773 27.1985 9.25814 27.1199 9.54087C27.076 9.68142 27.0616 9.82952 27.0777 9.97588C27.0938 10.1222 27.1399 10.2637 27.2132 10.3914C27.2865 10.5191 27.3854 10.6303 27.5037 10.7179C27.622 10.8056 27.7572 10.8679 27.9007 10.9009C28.0414 10.9405 28.1887 10.9517 28.3339 10.9338C28.479 10.9158 28.6191 10.8692 28.7461 10.7965C28.873 10.7238 28.9841 10.6265 29.073 10.5104C29.1619 10.3942 29.2268 10.2616 29.2638 10.1201C29.3293 9.83626 29.2848 9.53819 29.1394 9.28586C28.9939 9.03353 28.7582 8.84566 28.4799 8.76007ZM4.09585 22.8017C3.81162 22.7364 3.5132 22.7813 3.2608 22.9274C3.0084 23.0735 2.8208 23.3099 2.73585 23.5889C2.66229 23.8727 2.70327 24.174 2.84994 24.4279C2.99662 24.6817 3.23724 24.8677 3.51985 24.9457C3.66062 24.9895 3.80894 25.0037 3.95548 24.9875C4.10201 24.9712 4.2436 24.9248 4.37133 24.8511C4.49907 24.7775 4.61018 24.6782 4.6977 24.5596C4.78521 24.4409 4.84723 24.3055 4.87985 24.1617C4.91945 24.0211 4.93059 23.874 4.91263 23.7291C4.89467 23.5841 4.84796 23.4443 4.77524 23.3176C4.70253 23.1909 4.60526 23.0801 4.48915 22.9915C4.37304 22.9029 4.24042 22.8384 4.09905 22.8017H4.09585ZM4.39985 21.7489C4.7231 21.8238 5.01835 21.9891 5.25105 22.2257C5.30175 22.2556 5.35844 22.2741 5.41707 22.2796C5.47571 22.2851 5.53484 22.2776 5.59025 22.2577L8.71985 20.4209C8.78287 20.3903 8.83203 20.337 8.85753 20.2718C8.88304 20.2066 8.88301 20.1341 8.85745 20.0689C8.40339 19.0586 8.16861 17.9636 8.16861 16.8561C8.16861 15.7485 8.40339 14.6535 8.85745 13.6433C8.87939 13.5796 8.87753 13.5102 8.85224 13.4479C8.82694 13.3855 8.77991 13.3344 8.71985 13.3041L6.03505 11.7489C5.96734 11.7188 5.89065 11.716 5.82092 11.741C5.75119 11.7661 5.69379 11.817 5.66065 11.8833C5.62545 11.9537 5.59025 12.0529 5.55825 12.1233C5.51511 12.2209 5.44525 12.3044 5.35672 12.364C5.2682 12.4237 5.16462 12.4571 5.05792 12.4605C4.95122 12.4638 4.84575 12.4369 4.75367 12.3829C4.66158 12.3289 4.58663 12.25 4.53745 12.1553C4.51361 12.1057 4.47388 12.0656 4.42459 12.0412C4.3753 12.0169 4.31928 12.0097 4.26545 12.0209C3.71368 12.1136 3.14702 12.0024 2.67124 11.7079C2.19546 11.4135 1.84308 10.956 1.67985 10.4209C1.59643 10.1183 1.57754 9.80153 1.6244 9.49116C1.67126 9.1808 1.78282 8.88375 1.95185 8.61927C2.24217 8.2045 2.66443 7.90031 3.1498 7.7563C3.63516 7.61229 4.15499 7.63695 4.62455 7.82625C5.0941 8.01556 5.48567 8.35835 5.73543 8.79873C5.98519 9.23912 6.07839 9.75112 5.99985 10.2513C5.98952 10.3054 5.99741 10.3615 6.02231 10.4107C6.0472 10.4599 6.08769 10.4995 6.13745 10.5233L9.29905 12.3601C9.32769 12.3771 9.35957 12.388 9.39265 12.3921C9.42574 12.3961 9.45931 12.3933 9.49122 12.3836C9.52313 12.374 9.55269 12.3578 9.578 12.3361C9.60332 12.3144 9.62383 12.2877 9.63825 12.2577C10.2912 11.3699 11.1211 10.6272 12.0756 10.0764C13.0302 9.52562 14.0885 9.17874 15.1839 9.05767C15.2197 9.0581 15.2553 9.05136 15.2884 9.03784C15.3216 9.02432 15.3518 9.0043 15.3771 8.97896C15.4025 8.95361 15.4225 8.92346 15.436 8.89026C15.4495 8.85707 15.4563 8.82151 15.4559 8.78567V7.02567C15.454 6.96837 15.4327 6.91341 15.3955 6.8698C15.3583 6.82619 15.3073 6.79652 15.2511 6.78567C14.8211 6.62652 14.4504 6.3393 14.1888 5.96276C13.9273 5.58622 13.7876 5.13851 13.7887 4.68007C13.7773 4.38282 13.8261 4.08635 13.9321 3.8084C14.038 3.53045 14.1989 3.27673 14.4052 3.06243C14.6115 2.84814 14.8589 2.67766 15.1327 2.56122C15.4064 2.44478 15.7008 2.38477 15.9983 2.38477C16.2957 2.38477 16.5901 2.44478 16.8638 2.56122C17.1376 2.67766 17.385 2.84814 17.5913 3.06243C17.7976 3.27673 17.9585 3.53045 18.0644 3.8084C18.1704 4.08635 18.2192 4.38282 18.2079 4.68007C18.2089 5.13851 18.0692 5.58622 17.8077 5.96276C17.5461 6.3393 17.1754 6.62652 16.7455 6.78567C16.6895 6.79662 16.639 6.82641 16.6023 6.87008C16.5656 6.91374 16.545 6.96865 16.5439 7.02567V8.79207C16.5434 8.82791 16.5502 8.86347 16.5637 8.89666C16.5772 8.92986 16.5972 8.96001 16.6226 8.98536C16.6479 9.0107 16.6781 9.03072 16.7113 9.04424C16.7444 9.05776 16.78 9.0645 16.8159 9.06407C17.9106 9.18557 18.9684 9.53265 19.9223 10.0834C20.8762 10.6342 21.7057 11.3767 22.3583 12.2641C22.3727 12.2941 22.3932 12.3208 22.4185 12.3425C22.4438 12.3642 22.4734 12.3804 22.5053 12.39C22.5372 12.3997 22.5708 12.4025 22.6038 12.3985C22.6369 12.3944 22.6688 12.3835 22.6975 12.3665L25.8623 10.5297C25.9118 10.5058 25.9519 10.4661 25.9763 10.4168C26.0006 10.3675 26.0078 10.3115 25.9967 10.2577C25.9406 9.9302 25.9526 9.5947 26.0319 9.27207C26.1402 8.85706 26.3666 8.48239 26.6836 8.19344C27.0006 7.90449 27.3946 7.71367 27.8178 7.64409C28.241 7.57452 28.6754 7.62918 29.0682 7.80145C29.461 7.97372 29.7954 8.25621 30.0309 8.61468C30.2664 8.97316 30.3929 9.39225 30.3951 9.82116C30.3972 10.2501 30.275 10.6704 30.0431 11.0312C29.8112 11.3921 29.4796 11.6779 29.0886 11.8541C28.6975 12.0303 28.2638 12.0894 27.8399 12.0241C27.7761 12.0207 27.7127 12.0347 27.6564 12.0646C27.6 12.0944 27.5528 12.1391 27.5198 12.1937C27.486 12.2986 27.4214 12.3908 27.3344 12.4586C27.2475 12.5264 27.1422 12.5664 27.0323 12.5737C26.9223 12.5809 26.8127 12.555 26.7176 12.4992C26.6225 12.4434 26.5464 12.3604 26.4991 12.2609C26.4639 12.1265 26.3615 12.0241 26.3295 11.8865C26.2907 11.8165 26.2272 11.7636 26.1514 11.7381C26.0756 11.7126 25.993 11.7165 25.9199 11.7489L23.2766 13.3169C23.2137 13.3474 23.1647 13.4009 23.1398 13.4663C23.1148 13.5317 23.1157 13.6041 23.1423 13.6689C23.5947 14.6795 23.8286 15.7744 23.8286 16.8817C23.8286 17.989 23.5947 19.0838 23.1423 20.0945C23.1194 20.1577 23.1204 20.2271 23.1452 20.2895C23.1699 20.352 23.2167 20.4033 23.2766 20.4337L26.4062 22.2705C26.4617 22.2904 26.5208 22.2979 26.5794 22.2924C26.6381 22.2869 26.6948 22.2684 26.7455 22.2385C26.9782 22.0019 27.2734 21.8366 27.5966 21.7617C27.878 21.6852 28.1717 21.665 28.4608 21.7024C28.75 21.7397 29.0289 21.8337 29.2817 21.9791C29.5344 22.1245 29.7559 22.3184 29.9335 22.5496C30.1111 22.7808 30.2413 23.0448 30.3167 23.3265C30.3939 23.6036 30.4156 23.8933 30.3804 24.1789C30.3453 24.4645 30.254 24.7403 30.1119 24.9905C29.8113 25.5043 29.3242 25.8826 28.7519 26.0465C28.2577 26.143 27.7457 26.0833 27.287 25.8757C26.8283 25.6681 26.4456 25.323 26.1919 24.8881C26.0574 24.6865 25.8527 24.7185 25.6831 24.8881C25.2735 25.4673 24.355 24.7537 24.8319 24.1745C25.0742 23.9149 25.2887 23.6307 25.4718 23.3265C25.4936 23.2968 25.5087 23.2629 25.5162 23.2269C25.5236 23.1909 25.5232 23.1537 25.515 23.1179C25.5068 23.0821 25.491 23.0484 25.4686 23.0193C25.4463 22.9901 25.4179 22.9661 25.3855 22.9489L22.6975 21.3841C22.6424 21.3523 22.5776 21.3415 22.5152 21.3539C22.4528 21.3663 22.397 21.4009 22.3583 21.4513C21.7124 22.3482 20.8853 23.0995 19.9305 23.6562C18.9757 24.213 17.9146 24.5629 16.8159 24.6833C16.78 24.6828 16.7444 24.6896 16.7113 24.7031C16.6781 24.7166 16.6479 24.7366 16.6226 24.762C16.5972 24.7873 16.5772 24.8175 16.5637 24.8507C16.5502 24.8839 16.5434 24.9194 16.5439 24.9553V26.7217C16.545 26.7787 16.5656 26.8336 16.6023 26.8773C16.639 26.9209 16.6895 26.9507 16.7455 26.9617C17.2481 27.1529 17.6688 27.5125 17.9359 27.9793C17.9475 28.0096 17.9651 28.0372 17.9876 28.0607C18.0101 28.0841 18.037 28.1027 18.0668 28.1156C18.0967 28.1284 18.1287 28.1351 18.1612 28.1353C18.1937 28.1355 18.2259 28.1293 18.2558 28.1169C18.405 28.1104 18.5531 28.0879 18.6975 28.0497C18.8352 28.0191 18.9794 28.0431 19.0997 28.1168C19.22 28.1905 19.3069 28.308 19.3422 28.4446C19.3775 28.5812 19.3584 28.7262 19.2888 28.8489C19.2193 28.9716 19.1048 29.0626 18.9694 29.1025C18.7926 29.1638 18.6105 29.2088 18.4255 29.2369C18.3687 29.2394 18.3145 29.261 18.2715 29.2982C18.2286 29.3354 18.1994 29.3859 18.1887 29.4417C18.1011 29.9569 17.8325 30.424 17.4313 30.759C17.03 31.0939 16.5225 31.2747 15.9999 31.2689C15.4799 31.2632 14.9781 31.0769 14.5805 30.7417C14.1828 30.4066 13.9142 29.9436 13.8207 29.4321C13.7887 29.3297 13.7215 29.2273 13.6191 29.2273C13.3762 29.189 13.1365 29.1323 12.9023 29.0577C12.7626 29.0212 12.6432 28.9307 12.5703 28.8062C12.4974 28.6817 12.477 28.5333 12.5135 28.3937C12.5499 28.2541 12.6404 28.1347 12.7649 28.0617C12.8895 27.9888 13.0378 27.9684 13.1775 28.0049C13.3734 28.0308 13.5663 28.0759 13.7535 28.1393C13.8181 28.1507 13.8846 28.1402 13.9426 28.1095C14.0006 28.0788 14.0466 28.0296 14.0735 27.9697C14.3405 27.5029 14.7612 27.1433 15.2639 26.9521C15.3201 26.9412 15.3711 26.9115 15.4083 26.8679C15.4455 26.8243 15.4668 26.7694 15.4687 26.7121V24.9457C15.4691 24.9098 15.4623 24.8743 15.4488 24.8411C15.4353 24.8079 15.4153 24.7777 15.3899 24.7524C15.3646 24.727 15.3344 24.707 15.3012 24.6935C15.2681 24.68 15.2325 24.6732 15.1967 24.6737C14.0974 24.5537 13.0356 24.204 12.0802 23.6472C11.1249 23.0904 10.2972 22.339 9.65105 21.4417C9.61226 21.3913 9.55648 21.3567 9.49409 21.3443C9.43169 21.3319 9.36693 21.3427 9.31185 21.3745L6.61105 22.9489C6.57737 22.9643 6.54749 22.9869 6.52351 23.0151C6.49952 23.0433 6.48203 23.0764 6.47226 23.1121C6.4625 23.1478 6.46069 23.1853 6.46698 23.2217C6.47327 23.2582 6.48749 23.2929 6.50865 23.3233C6.68145 23.5953 6.88305 23.8321 7.05265 24.0689C7.10182 24.1224 7.13995 24.1852 7.16487 24.2535C7.18979 24.3218 7.20101 24.3944 7.19789 24.467C7.19477 24.5397 7.17737 24.611 7.14669 24.6769C7.116 24.7429 7.07263 24.8021 7.01905 24.8513C6.96547 24.9004 6.90273 24.9386 6.83442 24.9635C6.7661 24.9884 6.69355 24.9996 6.62089 24.9965C6.54824 24.9934 6.47691 24.976 6.41099 24.9453C6.34506 24.9146 6.28582 24.8712 6.23665 24.8177C6.20612 24.7865 6.16862 24.763 6.12723 24.7492C6.08585 24.7354 6.04177 24.7316 5.99864 24.7382C5.9555 24.7447 5.91455 24.7614 5.87915 24.787C5.84375 24.8125 5.81493 24.846 5.79505 24.8849C5.55794 25.3352 5.17747 25.6935 4.71382 25.9033C4.25018 26.1131 3.72982 26.1624 3.23505 26.0433C2.66685 25.8901 2.18278 25.5174 1.88932 25.0073C1.59586 24.4972 1.51706 23.8915 1.67025 23.3233C1.82344 22.7551 2.19607 22.271 2.70617 21.9775C3.21627 21.6841 3.82205 21.6053 4.39025 21.7585L4.39985 21.7489ZM20.7199 12.3633C20.2905 12.5911 19.8333 12.7622 19.3598 12.8721C19.2877 12.8909 19.2258 12.9374 19.1875 13.0014C19.1492 13.0654 19.1375 13.1419 19.1551 13.2145C19.3743 14.1403 19.4997 15.0859 19.5294 16.0369C19.529 16.0727 19.5358 16.1083 19.5493 16.1415C19.5628 16.1747 19.5828 16.2048 19.6082 16.2302C19.6335 16.2555 19.6637 16.2755 19.6969 16.289C19.73 16.3026 19.7656 16.3093 19.8015 16.3089H22.3999C22.4405 16.3114 22.4812 16.3044 22.5187 16.2884C22.5562 16.2724 22.5895 16.248 22.6159 16.2169C22.6423 16.1859 22.6611 16.1491 22.6708 16.1095C22.6805 16.0699 22.6809 16.0286 22.6719 15.9889C22.5046 14.6661 21.9477 13.423 21.0718 12.4177C21.0277 12.3752 20.9722 12.3462 20.9121 12.3343C20.852 12.3224 20.7897 12.328 20.7327 12.3505L20.7199 12.3633ZM17.7599 13.1441C16.5854 13.2758 15.4007 13.2875 14.2239 13.1793C14.155 13.1708 14.0853 13.1866 14.0269 13.224C13.9685 13.2614 13.925 13.318 13.9039 13.3841C13.7161 14.2572 13.6027 15.1446 13.5647 16.0369C13.5295 16.1713 13.6671 16.3089 13.8367 16.3089H18.1406C18.2178 16.3097 18.2927 16.2827 18.3515 16.2327C18.4103 16.1827 18.4491 16.1132 18.4606 16.0369C18.3937 15.133 18.2643 14.2349 18.0735 13.3489C18.0518 13.2831 18.0082 13.2269 17.9499 13.1896C17.8916 13.1522 17.8222 13.1362 17.7535 13.1441H17.7599ZM12.5919 12.9425C12.0997 12.8506 11.6197 12.7024 11.1615 12.5009C11.107 12.4669 11.0416 12.4549 10.9786 12.4674C10.9156 12.4799 10.8597 12.5159 10.8223 12.5681C10.0003 13.5426 9.48089 14.736 9.32785 16.0017C9.31811 16.0415 9.31795 16.083 9.32739 16.1229C9.33683 16.1628 9.35559 16.1999 9.38213 16.2311C9.40868 16.2624 9.44225 16.2868 9.4801 16.3026C9.51795 16.3183 9.55899 16.3249 9.59985 16.3217H12.1823C12.2181 16.3221 12.2537 16.3154 12.2868 16.3018C12.32 16.2883 12.3502 16.2683 12.3755 16.243C12.4009 16.2176 12.4209 16.1875 12.4344 16.1543C12.4479 16.1211 12.4547 16.0855 12.4543 16.0497C12.4925 15.119 12.6081 14.1932 12.7999 13.2817C12.812 13.2459 12.8161 13.208 12.8121 13.1705C12.808 13.133 12.7958 13.0968 12.7763 13.0645C12.7568 13.0322 12.7304 13.0045 12.6991 12.9835C12.6678 12.9624 12.6323 12.9484 12.5951 12.9425H12.5919ZM12.3583 11.7489C12.5631 11.7809 12.7679 11.8513 12.9727 11.8833C13.0047 11.8956 13.039 11.9009 13.0733 11.8989C13.1075 11.8968 13.141 11.8874 13.1713 11.8714C13.2016 11.8553 13.2281 11.8329 13.2491 11.8057C13.27 11.7785 13.2849 11.7471 13.2927 11.7137C13.3631 11.5089 13.4655 11.3073 13.5327 11.1377C13.5631 11.0892 13.5768 11.0321 13.5718 10.9752C13.5668 10.9182 13.5433 10.8644 13.5049 10.822C13.4665 10.7796 13.4152 10.7509 13.359 10.7403C13.3028 10.7297 13.2447 10.7378 13.1935 10.7633C12.8871 10.8999 12.5909 11.0582 12.3071 11.2369C12.26 11.2651 12.2223 11.3065 12.1985 11.3559C12.1746 11.4052 12.1658 11.4605 12.1729 11.5149C12.18 11.5693 12.2029 11.6204 12.2387 11.6619C12.2744 11.7035 12.3215 11.7337 12.3743 11.7489H12.3583ZM14.7199 12.1265C15.5732 12.1635 16.4279 12.1517 17.2799 12.0913C17.3233 12.0821 17.3643 12.064 17.4004 12.0381C17.4364 12.0122 17.4667 11.9791 17.4893 11.9409C17.5119 11.9027 17.5262 11.8602 17.5315 11.8161C17.5368 11.772 17.5328 11.7273 17.5199 11.6849C16.5599 9.60807 15.3759 9.64327 14.4575 11.7169C14.4441 11.7611 14.4404 11.8077 14.4468 11.8535C14.4532 11.8993 14.4694 11.9432 14.4943 11.9821C14.5192 12.021 14.5523 12.0541 14.5912 12.079C14.6302 12.1039 14.6741 12.1201 14.7199 12.1265ZM19.0399 11.8065C19.2094 11.7713 19.3791 11.7041 19.5487 11.6721C19.6014 11.6569 19.6485 11.6267 19.6842 11.5851C19.72 11.5436 19.7429 11.4925 19.75 11.4381C19.7571 11.3837 19.7483 11.3284 19.7244 11.2791C19.7006 11.2297 19.6629 11.1883 19.6159 11.1601C19.3791 11.0257 19.107 10.8881 18.8351 10.7537C18.7838 10.7318 18.727 10.7263 18.6726 10.7381C18.6181 10.7499 18.5687 10.7783 18.5311 10.8194C18.4935 10.8606 18.4696 10.9123 18.4627 10.9676C18.4558 11.0229 18.4663 11.079 18.4927 11.1281L18.6975 11.6369C18.726 11.7004 18.7758 11.7521 18.8383 11.783C18.9007 11.814 18.972 11.8222 19.0399 11.8065ZM19.5359 17.7009C19.5036 18.6411 19.3782 19.5758 19.1615 20.4913C19.144 20.5634 19.1558 20.6395 19.1941 20.703C19.2324 20.7665 19.2943 20.8123 19.3663 20.8305C19.8493 20.931 20.3179 21.0912 20.7614 21.3073C20.8165 21.3402 20.882 21.3512 20.9448 21.3382C21.0076 21.3251 21.0632 21.289 21.1007 21.2369C21.9642 20.255 22.5098 19.0344 22.6655 17.7361C22.6745 17.6963 22.6741 17.655 22.6644 17.6154C22.6547 17.5759 22.6359 17.5391 22.6095 17.508C22.5831 17.477 22.5498 17.4525 22.5123 17.4365C22.4748 17.4206 22.4341 17.4136 22.3935 17.4161H19.8079C19.772 17.4156 19.7365 17.4224 19.7033 17.4359C19.6701 17.4494 19.6399 17.4694 19.6146 17.4948C19.5892 17.5201 19.5692 17.5503 19.5557 17.5835C19.5422 17.6167 19.5354 17.6522 19.5359 17.6881V17.7009ZM18.7199 22.0529C18.6527 22.2257 18.5503 22.4273 18.4799 22.5969C18.4535 22.646 18.443 22.702 18.4499 22.7573C18.4568 22.8126 18.4807 22.8644 18.5183 22.9055C18.5559 22.9466 18.6053 22.975 18.6598 22.9868C18.7142 22.9986 18.771 22.9932 18.8223 22.9713C19.1082 22.8515 19.3816 22.7035 19.6383 22.5297C19.6843 22.5011 19.7211 22.4598 19.7442 22.4109C19.7674 22.3619 19.7759 22.3073 19.7689 22.2536C19.7618 22.1999 19.7393 22.1494 19.7042 22.1081C19.6692 22.0668 19.6229 22.0365 19.5711 22.0209C19.4335 21.9857 19.2511 21.9185 19.0942 21.8833C19.0221 21.8563 18.9422 21.859 18.872 21.8907C18.8018 21.9225 18.7471 21.9808 18.7199 22.0529ZM13.5167 22.5969C13.4495 22.4273 13.3471 22.2257 13.2767 22.0209C13.254 21.9578 13.2087 21.9055 13.1495 21.8741C13.0903 21.8427 13.0215 21.8346 12.9567 21.8513C12.758 21.8867 12.5638 21.9435 12.3775 22.0209C12.3259 22.0317 12.279 22.0581 12.2431 22.0965C12.2071 22.135 12.1839 22.1836 12.1765 22.2357C12.1692 22.2878 12.1781 22.3409 12.202 22.3878C12.2259 22.4347 12.2637 22.473 12.3103 22.4977C12.582 22.6762 12.8665 22.8345 13.1615 22.9713C13.2127 22.9968 13.2708 23.0048 13.327 22.9942C13.3832 22.9836 13.4345 22.955 13.4729 22.9126C13.5113 22.8702 13.5348 22.8164 13.5398 22.7594C13.5448 22.7024 13.5311 22.6453 13.5007 22.5969H13.5167ZM12.8351 20.4913C12.6183 19.5758 12.4929 18.6411 12.4607 17.7009C12.4611 17.665 12.4543 17.6295 12.4408 17.5963C12.4273 17.5631 12.4073 17.5329 12.3819 17.5076C12.3566 17.4822 12.3264 17.4622 12.2932 17.4487C12.2601 17.4352 12.2245 17.4284 12.1887 17.4289H9.59985C9.55899 17.4257 9.51795 17.4322 9.4801 17.4479C9.44225 17.4637 9.40868 17.4882 9.38213 17.5194C9.35559 17.5506 9.33683 17.5877 9.32739 17.6276C9.31795 17.6675 9.31811 17.7091 9.32785 17.7489C9.49642 19.0278 10.036 20.2292 10.8799 21.2049C10.9178 21.2564 10.9736 21.292 11.0364 21.3044C11.0992 21.3168 11.1643 21.3053 11.2191 21.2721C11.6694 21.0729 12.1362 20.9134 12.6143 20.7953C12.652 20.7925 12.6886 20.7817 12.7217 20.7634C12.7549 20.7452 12.7836 20.72 12.8061 20.6896C12.8286 20.6593 12.8443 20.6244 12.852 20.5874C12.8598 20.5504 12.8594 20.5121 12.8511 20.4753L12.8351 20.4913ZM13.5839 17.7009C13.6219 18.5931 13.7353 19.4806 13.923 20.3537C13.9442 20.4198 13.9877 20.4764 14.0461 20.5138C14.1045 20.5512 14.1742 20.567 14.2431 20.5585C15.4187 20.4385 16.6034 20.4385 17.7791 20.5585C17.8135 20.5665 17.8493 20.5675 17.8841 20.5615C17.919 20.5554 17.9523 20.5425 17.9822 20.5234C18.012 20.5043 18.0377 20.4795 18.0577 20.4503C18.0778 20.4212 18.0919 20.3883 18.0991 20.3537C18.286 19.4793 18.4111 18.5928 18.4734 17.7009C18.4619 17.6246 18.4231 17.555 18.3643 17.505C18.3055 17.455 18.2306 17.428 18.1535 17.4289H13.8559C13.6863 17.4289 13.5359 17.5665 13.5839 17.7009ZM14.4671 22.0209C15.4271 24.0945 16.5759 24.1297 17.5295 22.0209C17.5479 21.9799 17.5556 21.9348 17.5519 21.89C17.5482 21.8452 17.5331 21.8021 17.5082 21.7646C17.4833 21.7272 17.4492 21.6967 17.4093 21.6761C17.3693 21.6554 17.3248 21.6452 17.2799 21.6465C16.4287 21.5687 15.5728 21.557 14.7199 21.6113C14.6761 21.6204 14.6347 21.6386 14.5983 21.6647C14.562 21.6908 14.5315 21.7242 14.5089 21.7628C14.4863 21.8014 14.472 21.8443 14.467 21.8887C14.462 21.9332 14.4664 21.9782 14.4799 22.0209H14.4671ZM10.2399 26.8145C9.91985 26.6097 9.66065 26.4401 9.35345 26.2353C8.74225 25.7937 8.13105 26.7473 8.71345 27.1537C9.05585 27.3585 9.35345 27.5633 9.69905 27.7681C9.82635 27.8406 9.97727 27.8596 10.1186 27.8209C10.2599 27.7822 10.3801 27.689 10.4527 27.5617C10.5252 27.4344 10.5442 27.2834 10.5055 27.1421C10.4668 27.0008 10.3736 26.8806 10.2463 26.8081L10.2399 26.8145ZM4.01585 20.7345C4.06168 20.8758 4.16177 20.9931 4.29409 21.0606C4.42642 21.1281 4.58014 21.1403 4.72145 21.0945C4.86276 21.0486 4.98007 20.9486 5.04759 20.8162C5.1151 20.6839 5.12728 20.5302 5.08145 20.3889C4.97905 20.0497 4.87665 19.7073 4.80945 19.3681C4.67505 18.6865 3.58385 18.8593 3.72145 19.5729C3.79051 19.9674 3.89768 20.3543 4.04145 20.7281L4.01585 20.7345ZM3.44945 16.1393C3.44504 16.2107 3.45474 16.2823 3.478 16.35C3.50126 16.4177 3.53763 16.4801 3.58503 16.5338C3.63242 16.5874 3.68992 16.6312 3.75423 16.6626C3.81854 16.694 3.88841 16.7125 3.95985 16.7169C4.03129 16.7213 4.1029 16.7116 4.17059 16.6883C4.23828 16.6651 4.30072 16.6287 4.35436 16.5813C4.40799 16.5339 4.45177 16.4764 4.48318 16.4121C4.5146 16.3478 4.53304 16.2779 4.53745 16.2065C4.57265 15.8673 4.60465 15.5249 4.63985 15.1505C4.66234 15.0062 4.6266 14.8589 4.54048 14.741C4.45436 14.623 4.32493 14.5442 4.18065 14.5217C4.03637 14.4992 3.88907 14.5349 3.77115 14.621C3.65323 14.7072 3.57434 14.8366 3.55185 14.9809C3.48596 15.3635 3.45171 15.751 3.44945 16.1393ZM7.19025 7.90887C6.64625 8.42087 7.46225 9.18887 7.93905 8.69287C8.21105 8.42087 8.48305 8.21607 8.75505 7.97607C8.8675 7.88144 8.93776 7.74601 8.95036 7.59959C8.96296 7.45316 8.91688 7.30772 8.82225 7.19527C8.72762 7.08282 8.5922 7.01256 8.44577 6.99996C8.29934 6.98736 8.1539 7.03344 8.04145 7.12807C7.73283 7.35982 7.44772 7.62135 7.19025 7.90887ZM10.9983 5.32647C10.8633 5.38503 10.7572 5.4948 10.7031 5.63162C10.6491 5.76845 10.6517 5.92113 10.7103 6.05607C10.7688 6.19101 10.8786 6.29716 11.0154 6.35117C11.1522 6.40518 11.3049 6.40263 11.4399 6.34407C11.7616 6.19956 12.0918 6.07453 12.4287 5.96967C12.4988 5.948 12.5639 5.91261 12.6202 5.86556C12.6765 5.8185 12.7229 5.76072 12.7567 5.69557C12.7905 5.63042 12.8109 5.5592 12.817 5.48606C12.823 5.41292 12.8144 5.33931 12.7917 5.26953C12.769 5.19974 12.7326 5.13516 12.6847 5.07955C12.6369 5.02393 12.5784 4.97839 12.5128 4.94558C12.4471 4.91276 12.3756 4.89332 12.3024 4.8884C12.2292 4.88347 12.1557 4.89315 12.0863 4.91687C11.7163 5.03313 11.353 5.16987 10.9983 5.32647ZM20.0447 4.95207C19.908 4.91375 19.7619 4.92874 19.6359 4.994C19.5099 5.05926 19.4134 5.16992 19.3658 5.30363C19.3183 5.43734 19.3232 5.58411 19.3798 5.71428C19.4363 5.84445 19.5401 5.94831 19.6703 6.00487H19.7055C20.0335 6.10804 20.3542 6.23312 20.6655 6.37927H20.6975C20.7636 6.4186 20.8375 6.44334 20.914 6.45184C20.9905 6.46034 21.068 6.4524 21.1412 6.42855C21.2144 6.40471 21.2817 6.3655 21.3385 6.31356C21.3953 6.26162 21.4404 6.19814 21.4708 6.12737C21.5011 6.05661 21.516 5.98017 21.5144 5.9032C21.5128 5.82622 21.4948 5.75046 21.4616 5.68101C21.4283 5.61155 21.3807 5.54998 21.3217 5.50043C21.2628 5.45088 21.194 5.41448 21.1199 5.39367V5.34887C20.7487 5.21447 20.4062 5.07687 20.0319 4.94247L20.0447 4.95207ZM24.0575 7.23047C23.5487 6.75367 22.7999 7.56967 23.3438 8.04647V8.07847C23.6205 8.28746 23.8824 8.51519 24.1279 8.76007C24.177 8.81134 24.2358 8.85242 24.3008 8.88097C24.3659 8.90952 24.4359 8.92498 24.5069 8.92646C24.578 8.92795 24.6486 8.91543 24.7148 8.88963C24.7809 8.86382 24.8414 8.82523 24.8927 8.77607C24.9439 8.7269 24.985 8.66812 25.0136 8.60307C25.0421 8.53803 25.0576 8.468 25.059 8.39698C25.0605 8.32596 25.048 8.25535 25.0222 8.18917C24.9964 8.12299 24.9578 8.06254 24.9086 8.01127C24.6512 7.72375 24.3661 7.46222 24.0575 7.23047ZM28.4447 15.1185C28.4222 14.9742 28.3433 14.8448 28.2254 14.7586C28.1074 14.6725 27.9601 14.6368 27.8159 14.6593C27.6716 14.6818 27.5421 14.7606 27.456 14.8786C27.3699 14.9965 27.3342 15.1438 27.3566 15.2881C27.4099 15.6369 27.4441 15.9883 27.459 16.3409C27.473 16.4827 27.5403 16.614 27.6473 16.7083C27.7543 16.8025 27.8931 16.8526 28.0356 16.8486C28.1781 16.8445 28.3137 16.7865 28.4152 16.6864C28.5167 16.5862 28.5764 16.4513 28.5823 16.3089V16.2737C28.5471 15.8993 28.5151 15.5249 28.4799 15.1505L28.4447 15.1185ZM28.2431 19.7489C28.2609 19.6795 28.2649 19.6074 28.2549 19.5365C28.2449 19.4656 28.221 19.3973 28.1846 19.3357C28.1482 19.274 28.1 19.2201 28.0428 19.1771C27.9855 19.1341 27.9204 19.1027 27.8511 19.0849C27.7817 19.067 27.7095 19.063 27.6386 19.073C27.5677 19.083 27.4995 19.1069 27.4379 19.1433C27.3762 19.1798 27.3223 19.2279 27.2793 19.2852C27.2363 19.3424 27.2049 19.4075 27.187 19.4769C27.0847 19.8161 27.0175 20.1553 26.8831 20.4977C26.6431 21.2113 27.7311 21.5153 27.9359 20.8721C28.0737 20.5073 28.1807 20.1315 28.2559 19.7489H28.2431ZM23.1423 27.2241C23.2077 27.1861 23.2646 27.1351 23.3096 27.0742C23.3545 27.0134 23.3865 26.9439 23.4036 26.8702C23.4207 26.7965 23.4225 26.7201 23.4088 26.6456C23.3952 26.5712 23.3665 26.5004 23.3244 26.4375C23.2823 26.3746 23.2278 26.321 23.1642 26.28C23.1006 26.239 23.0293 26.2115 22.9547 26.1991C22.88 26.1868 22.8036 26.1899 22.7302 26.2082C22.6568 26.2265 22.5879 26.2597 22.5279 26.3057C22.2559 26.5073 21.9167 26.7121 21.6446 26.8817C21.5816 26.9151 21.5258 26.9606 21.4803 27.0156C21.4349 27.0705 21.4007 27.1339 21.3798 27.2021C21.3588 27.2703 21.3515 27.342 21.3582 27.413C21.365 27.484 21.3856 27.553 21.4191 27.6161C21.4525 27.6791 21.498 27.7349 21.5529 27.7804C21.6079 27.8258 21.6713 27.86 21.7395 27.881C21.8077 27.9019 21.8794 27.9092 21.9504 27.9025C22.0214 27.8957 22.0904 27.8751 22.1535 27.8417C22.5011 27.6687 22.8321 27.4641 23.1423 27.2305V27.2241ZM15.9999 27.9377C15.703 27.9393 15.4188 28.0578 15.2086 28.2674C14.9984 28.477 14.8792 28.7608 14.8767 29.0577C14.898 29.3401 15.0253 29.604 15.233 29.7966C15.4407 29.9891 15.7134 30.0961 15.9967 30.0961C16.2799 30.0961 16.5526 29.9891 16.7603 29.7966C16.968 29.604 17.0953 29.3401 17.1167 29.0577C17.1141 28.7614 16.9953 28.478 16.7858 28.2685C16.5763 28.059 16.2929 27.9402 15.9967 27.9377H15.9999ZM15.9999 3.59207C15.8545 3.5891 15.71 3.61496 15.5747 3.66815C15.4394 3.72134 15.3159 3.80081 15.2115 3.90197C15.1071 4.00312 15.0237 4.12397 14.9662 4.25752C14.9088 4.39107 14.8783 4.53469 14.8767 4.68007C14.898 4.96249 15.0253 5.22641 15.233 5.41898C15.4407 5.61155 15.7134 5.71854 15.9967 5.71854C16.2799 5.71854 16.5526 5.61155 16.7603 5.41898C16.968 5.22641 17.0953 4.96249 17.1167 4.68007C17.115 4.53523 17.0847 4.39215 17.0277 4.25902C16.9706 4.1259 16.8878 4.00534 16.7841 3.90427C16.6803 3.80319 16.5576 3.72359 16.4231 3.67002C16.2885 3.61644 16.1447 3.58995 15.9999 3.59207ZM27.9007 22.7921C27.7593 22.8288 27.6267 22.8933 27.5106 22.9819C27.3944 23.0705 27.2972 23.1813 27.2245 23.308C27.1517 23.4347 27.105 23.5745 27.0871 23.7195C27.0691 23.8644 27.0803 24.0115 27.1199 24.1521C27.1514 24.2967 27.2126 24.4332 27.2996 24.553C27.3867 24.6727 27.4976 24.7731 27.6255 24.8477C27.7533 24.9223 27.8953 24.9695 28.0424 24.9864C28.1894 25.0033 28.3384 24.9894 28.4799 24.9457C28.762 24.867 29.0021 24.6808 29.1486 24.4272C29.2952 24.1736 29.3366 23.8726 29.2638 23.5889C29.1769 23.3107 28.9883 23.0754 28.7357 22.9301C28.483 22.7848 28.1848 22.7401 27.9007 22.8049V22.7921ZM3.51985 8.76007C3.24161 8.84565 3.00624 9.03367 2.8613 9.28612C2.71636 9.53857 2.67267 9.83664 2.73905 10.1201C2.77534 10.2617 2.83963 10.3946 2.92813 10.5109C3.01662 10.6272 3.12752 10.7247 3.25429 10.7975C3.38105 10.8702 3.52112 10.9169 3.6662 10.9346C3.81129 10.9524 3.95847 10.9409 4.09905 10.9009C4.24255 10.8679 4.37768 10.8056 4.49597 10.7179C4.61426 10.6303 4.71317 10.5191 4.78647 10.3914C4.85978 10.2637 4.90592 10.1222 4.92199 9.97588C4.93806 9.82952 4.92371 9.68142 4.87985 9.54087C4.80121 9.25814 4.61445 9.01773 4.35995 8.87161C4.10545 8.7255 3.80366 8.68543 3.51985 8.76007Z" fill="#414651"/>
</svg>
