<svg width="40" height="41" viewBox="0 0 40 41" fill="none" xmlns="http://www.w3.org/2000/svg">
<g clip-path="url(#clip0_4907_599)">
<path d="M6.6665 10.2832C6.6665 11.6093 8.07126 12.8811 10.5717 13.8187C13.0722 14.7564 16.4636 15.2832 19.9998 15.2832C23.5361 15.2832 26.9274 14.7564 29.4279 13.8187C31.9284 12.8811 33.3332 11.6093 33.3332 10.2832C33.3332 8.95712 31.9284 7.68535 29.4279 6.74767C26.9274 5.80999 23.5361 5.2832 19.9998 5.2832C16.4636 5.2832 13.0722 5.80999 10.5717 6.74767C8.07126 7.68535 6.6665 8.95712 6.6665 10.2832Z" stroke="#7F56D9" stroke-width="3.33333" stroke-linecap="round" stroke-linejoin="round"/>
<path d="M6.6665 10.2832V20.2832C6.6665 21.6093 8.07126 22.8811 10.5717 23.8187C13.0722 24.7564 16.4636 25.2832 19.9998 25.2832C23.5361 25.2832 26.9274 24.7564 29.4279 23.8187C31.9284 22.8811 33.3332 21.6093 33.3332 20.2832V10.2832" stroke="#7F56D9" stroke-width="3.33333" stroke-linecap="round" stroke-linejoin="round"/>
<path d="M6.6665 20.2832V30.2832C6.6665 31.6093 8.07126 32.8811 10.5717 33.8187C13.0722 34.7564 16.4636 35.2832 19.9998 35.2832C23.5361 35.2832 26.9274 34.7564 29.4279 33.8187C31.9284 32.8811 33.3332 31.6093 33.3332 30.2832V20.2832" stroke="#7F56D9" stroke-width="3.33333" stroke-linecap="round" stroke-linejoin="round"/>
</g>
<defs>
<clipPath id="clip0_4907_599">
<rect width="40" height="40" fill="white" transform="translate(0 0.283203)"/>
</clipPath>
</defs>
</svg>
