<svg width="26" height="26" viewBox="0 0 26 26" fill="none" xmlns="http://www.w3.org/2000/svg">
<g clip-path="url(#clip0_2176_16703)">
<path d="M10.5956 22.1427C11.0112 22.5406 11.0258 23.201 10.6279 23.6156C10.4237 23.8292 10.1497 23.9375 9.87578 23.9375C9.61641 23.9375 9.35703 23.8417 9.15599 23.649L3.56849 18.299C-0.509632 14.2208 -0.509632 7.6125 3.55183 3.55104C5.51954 1.58333 8.13516 0.5 10.9175 0.5C13.6997 0.5 16.3154 1.58333 18.2831 3.55104C20.5331 5.80104 21.6216 8.90833 21.2695 12.074C21.206 12.6458 20.6997 13.051 20.1195 12.9948C19.5477 12.9302 19.1362 12.4156 19.1997 11.8448C19.481 9.31042 18.6102 6.82604 16.8102 5.025C15.2362 3.45104 13.1435 2.58437 10.9175 2.58437C8.69141 2.58437 6.5987 3.45104 5.02474 5.025C1.77578 8.27396 1.77578 13.5615 5.02474 16.8104L10.5966 22.1437L10.5956 22.1427ZM10.9175 15.0833C8.61953 15.0833 6.75078 13.2146 6.75078 10.9167C6.75078 8.61875 8.61953 6.75 10.9175 6.75C13.2154 6.75 15.0841 8.61875 15.0841 10.9167C15.0841 13.2146 13.2154 15.0833 10.9175 15.0833ZM13.0008 10.9167C13.0008 9.76771 12.0664 8.83333 10.9175 8.83333C9.76849 8.83333 8.83412 9.76771 8.83412 10.9167C8.83412 12.0656 9.76849 13 10.9175 13C12.0664 13 13.0008 12.0656 13.0008 10.9167ZM25.5008 18.2083V22.375C25.5008 24.0979 24.0987 25.5 22.3758 25.5H16.1258C14.4029 25.5 13.0008 24.0979 13.0008 22.375V18.2083C13.0008 16.4854 14.4029 15.0833 16.1258 15.0833H22.3758C24.0987 15.0833 25.5008 16.4854 25.5008 18.2083ZM16.7362 17.1667L18.5143 18.9448C18.9081 19.3396 19.5945 19.3396 19.9872 18.9448L21.7654 17.1667H16.7362ZM23.4175 22.375V18.4604L21.4602 20.4177C20.8706 21.0073 20.0862 21.3333 19.2508 21.3333C18.4154 21.3333 17.631 21.0083 17.0404 20.4177L15.0841 18.4604V22.375C15.0841 22.95 15.5518 23.4167 16.1258 23.4167H22.3758C22.9497 23.4167 23.4175 22.95 23.4175 22.375Z" fill="#FDFDFD"/>
</g>
<defs>
<clipPath id="clip0_2176_16703">
<rect width="25" height="25" fill="white" transform="translate(0.5 0.5)"/>
</clipPath>
</defs>
</svg>
