<svg width="135" height="41" viewBox="0 0 135 41" fill="none" xmlns="http://www.w3.org/2000/svg">
<rect x="0.5" y="1.45215" width="134" height="39" rx="6.5" fill="black"/>
<rect x="0.5" y="1.45215" width="134" height="39" rx="6.5" stroke="#A6A6A6"/>
<path d="M68.136 22.703C65.784 22.703 63.867 24.492 63.867 26.956C63.867 29.405 65.784 31.209 68.136 31.209C70.489 31.209 72.406 29.405 72.406 26.956C72.405 24.492 70.488 22.703 68.136 22.703ZM68.136 29.535C66.847 29.535 65.736 28.472 65.736 26.957C65.736 25.426 66.848 24.379 68.136 24.379C69.425 24.379 70.536 25.426 70.536 26.957C70.536 28.471 69.425 29.535 68.136 29.535ZM58.822 22.703C56.47 22.703 54.553 24.492 54.553 26.956C54.553 29.405 56.47 31.209 58.822 31.209C61.175 31.209 63.092 29.405 63.092 26.956C63.092 24.492 61.175 22.703 58.822 22.703ZM58.822 29.535C57.533 29.535 56.422 28.472 56.422 26.957C56.422 25.426 57.534 24.379 58.822 24.379C60.111 24.379 61.222 25.426 61.222 26.957C61.223 28.471 60.111 29.535 58.822 29.535ZM47.744 24.009V25.813H52.062C51.933 26.828 51.595 27.569 51.079 28.084C50.451 28.712 49.468 29.405 47.744 29.405C45.086 29.405 43.008 27.262 43.008 24.604C43.008 21.946 45.086 19.803 47.744 19.803C49.178 19.803 50.225 20.367 50.998 21.092L52.271 19.819C51.191 18.788 49.758 17.999 47.744 17.999C44.103 17.999 41.042 20.963 41.042 24.604C41.042 28.245 44.103 31.209 47.744 31.209C49.709 31.209 51.192 30.564 52.351 29.356C53.543 28.164 53.914 26.488 53.914 25.135C53.914 24.717 53.882 24.33 53.817 24.008H47.744V24.009ZM93.052 25.41C92.698 24.46 91.618 22.703 89.411 22.703C87.22 22.703 85.399 24.427 85.399 26.956C85.399 29.34 87.204 31.209 89.62 31.209C91.569 31.209 92.697 30.017 93.165 29.324L91.715 28.357C91.232 29.066 90.571 29.533 89.62 29.533C88.67 29.533 87.993 29.098 87.558 28.244L93.245 25.892L93.052 25.41ZM87.252 26.828C87.204 25.184 88.525 24.347 89.476 24.347C90.217 24.347 90.845 24.718 91.055 25.249L87.252 26.828ZM82.629 30.952H84.497V18.451H82.629V30.952ZM79.567 23.654H79.503C79.084 23.154 78.278 22.703 77.264 22.703C75.137 22.703 73.188 24.572 73.188 26.973C73.188 29.357 75.137 31.21 77.264 31.21C78.279 31.21 79.084 30.759 79.503 30.244H79.567V30.856C79.567 32.483 78.697 33.353 77.296 33.353C76.152 33.353 75.443 32.532 75.153 31.839L73.526 32.516C73.993 33.643 75.233 35.029 77.296 35.029C79.487 35.029 81.34 33.74 81.34 30.598V22.962H79.568V23.654H79.567ZM77.425 29.535C76.136 29.535 75.057 28.455 75.057 26.973C75.057 25.474 76.136 24.379 77.425 24.379C78.697 24.379 79.696 25.474 79.696 26.973C79.696 28.455 78.697 29.535 77.425 29.535ZM101.806 18.451H97.335V30.952H99.2V26.216H101.805C103.873 26.216 105.907 24.719 105.907 22.334C105.907 19.949 103.874 18.451 101.806 18.451ZM101.854 24.476H99.2V20.191H101.854C103.249 20.191 104.041 21.346 104.041 22.334C104.041 23.302 103.249 24.476 101.854 24.476ZM113.386 22.681C112.035 22.681 110.636 23.276 110.057 24.595L111.713 25.286C112.067 24.595 112.727 24.369 113.418 24.369C114.383 24.369 115.364 24.948 115.38 25.977V26.106C115.042 25.913 114.318 25.624 113.434 25.624C111.649 25.624 109.831 26.605 109.831 28.438C109.831 30.111 111.295 31.188 112.935 31.188C114.189 31.188 114.881 30.625 115.315 29.965H115.379V30.93H117.181V26.137C117.182 23.919 115.524 22.681 113.386 22.681ZM113.16 29.532C112.55 29.532 111.697 29.226 111.697 28.47C111.697 27.505 112.759 27.135 113.676 27.135C114.495 27.135 114.882 27.312 115.38 27.553C115.235 28.712 114.238 29.532 113.16 29.532ZM123.743 22.954L121.604 28.374H121.54L119.32 22.954H117.31L120.639 30.529L118.741 34.743H120.687L125.818 22.954H123.743ZM106.937 30.952H108.802V18.451H106.937V30.952Z" fill="white"/>
<path d="M47.418 11.1953C47.418 12.0333 47.1701 12.7003 46.673 13.1983C46.109 13.7903 45.3731 14.0863 44.4691 14.0863C43.6031 14.0863 42.8661 13.7863 42.2611 13.1863C41.6551 12.5853 41.3521 11.8413 41.3521 10.9533C41.3521 10.0643 41.6551 9.32034 42.2611 8.72034C42.8661 8.11934 43.6031 7.81934 44.4691 7.81934C44.8991 7.81934 45.3101 7.90334 45.7001 8.07034C46.0911 8.23834 46.404 8.46134 46.6381 8.74034L46.111 9.26834C45.714 8.79334 45.167 8.55634 44.468 8.55634C43.836 8.55634 43.29 8.77834 42.829 9.22234C42.368 9.66634 42.1381 10.2433 42.1381 10.9523C42.1381 11.6613 42.368 12.2383 42.829 12.6823C43.29 13.1263 43.836 13.3483 44.468 13.3483C45.138 13.3483 45.6971 13.1253 46.1441 12.6783C46.4341 12.3873 46.602 11.9823 46.647 11.4633H44.468V10.7423H47.375C47.405 10.8993 47.418 11.0503 47.418 11.1953Z" fill="white"/>
<path d="M52.0281 8.68939H49.2961V10.5914H51.7601V11.3124H49.2961V13.2144H52.0281V13.9524H48.5251V7.95239H52.0281V8.68939Z" fill="white"/>
<path d="M55.279 13.9524H54.508V8.68939H52.832V7.95239H56.955V8.68939H55.279V13.9524Z" fill="white"/>
<path d="M59.938 13.9524V7.95239H60.709V13.9524H59.938Z" fill="white"/>
<path d="M64.1281 13.9524H63.3572V8.68939H61.6812V7.95239H65.8042V8.68939H64.1281V13.9524Z" fill="white"/>
<path d="M73.6089 13.1774C73.0189 13.7834 72.2859 14.0864 71.4089 14.0864C70.5319 14.0864 69.7989 13.7834 69.2099 13.1774C68.6199 12.5714 68.3259 11.8294 68.3259 10.9524C68.3259 10.0754 68.6199 9.33338 69.2099 8.72738C69.7989 8.12138 70.5319 7.81738 71.4089 7.81738C72.2809 7.81738 73.0129 8.12238 73.6049 8.73138C74.1969 9.34038 74.4929 10.0804 74.4929 10.9524C74.4929 11.8294 74.1979 12.5714 73.6089 13.1774ZM69.7789 12.6744C70.2229 13.1244 70.7659 13.3484 71.4089 13.3484C72.0519 13.3484 72.5959 13.1234 73.0389 12.6744C73.4829 12.2244 73.7059 11.6504 73.7059 10.9524C73.7059 10.2544 73.4829 9.68038 73.0389 9.23038C72.5959 8.78038 72.0519 8.55638 71.4089 8.55638C70.7659 8.55638 70.2229 8.78138 69.7789 9.23038C69.3359 9.68038 69.1129 10.2544 69.1129 10.9524C69.1129 11.6504 69.3359 12.2244 69.7789 12.6744Z" fill="white"/>
<path d="M75.5749 13.9524V7.95239H76.513L79.429 12.6194H79.4619L79.429 11.4634V7.95239H80.1999V13.9524H79.3949L76.344 9.05839H76.3109L76.344 10.2144V13.9524H75.5749Z" fill="white"/>
<path d="M47.418 11.1953C47.418 12.0333 47.1701 12.7003 46.673 13.1983C46.109 13.7903 45.3731 14.0863 44.4691 14.0863C43.6031 14.0863 42.8661 13.7863 42.2611 13.1863C41.6551 12.5853 41.3521 11.8413 41.3521 10.9533C41.3521 10.0643 41.6551 9.32034 42.2611 8.72034C42.8661 8.11934 43.6031 7.81934 44.4691 7.81934C44.8991 7.81934 45.3101 7.90334 45.7001 8.07034C46.0911 8.23834 46.404 8.46134 46.6381 8.74034L46.111 9.26834C45.714 8.79334 45.167 8.55634 44.468 8.55634C43.836 8.55634 43.29 8.77834 42.829 9.22234C42.368 9.66634 42.1381 10.2433 42.1381 10.9523C42.1381 11.6613 42.368 12.2383 42.829 12.6823C43.29 13.1263 43.836 13.3483 44.468 13.3483C45.138 13.3483 45.6971 13.1253 46.1441 12.6783C46.4341 12.3873 46.602 11.9823 46.647 11.4633H44.468V10.7423H47.375C47.405 10.8993 47.418 11.0503 47.418 11.1953Z" stroke="white" stroke-width="0.2" stroke-miterlimit="10"/>
<path d="M52.0281 8.68939H49.2961V10.5914H51.7601V11.3124H49.2961V13.2144H52.0281V13.9524H48.5251V7.95239H52.0281V8.68939Z" stroke="white" stroke-width="0.2" stroke-miterlimit="10"/>
<path d="M55.279 13.9524H54.508V8.68939H52.832V7.95239H56.955V8.68939H55.279V13.9524Z" stroke="white" stroke-width="0.2" stroke-miterlimit="10"/>
<path d="M59.938 13.9524V7.95239H60.709V13.9524H59.938Z" stroke="white" stroke-width="0.2" stroke-miterlimit="10"/>
<path d="M64.1281 13.9524H63.3572V8.68939H61.6812V7.95239H65.8042V8.68939H64.1281V13.9524Z" stroke="white" stroke-width="0.2" stroke-miterlimit="10"/>
<path d="M73.6089 13.1774C73.0189 13.7834 72.2859 14.0864 71.4089 14.0864C70.5319 14.0864 69.7989 13.7834 69.2099 13.1774C68.6199 12.5714 68.3259 11.8294 68.3259 10.9524C68.3259 10.0754 68.6199 9.33338 69.2099 8.72738C69.7989 8.12138 70.5319 7.81738 71.4089 7.81738C72.2809 7.81738 73.0129 8.12238 73.6049 8.73138C74.1969 9.34038 74.4929 10.0804 74.4929 10.9524C74.4929 11.8294 74.1979 12.5714 73.6089 13.1774ZM69.7789 12.6744C70.2229 13.1244 70.7659 13.3484 71.4089 13.3484C72.0519 13.3484 72.5959 13.1234 73.0389 12.6744C73.4829 12.2244 73.7059 11.6504 73.7059 10.9524C73.7059 10.2544 73.4829 9.68038 73.0389 9.23038C72.5959 8.78038 72.0519 8.55638 71.4089 8.55638C70.7659 8.55638 70.2229 8.78138 69.7789 9.23038C69.3359 9.68038 69.1129 10.2544 69.1129 10.9524C69.1129 11.6504 69.3359 12.2244 69.7789 12.6744Z" stroke="white" stroke-width="0.2" stroke-miterlimit="10"/>
<path d="M75.5749 13.9524V7.95239H76.513L79.429 12.6194H79.4619L79.429 11.4634V7.95239H80.1999V13.9524H79.3949L76.344 9.05839H76.3109L76.344 10.2144V13.9524H75.5749Z" stroke="white" stroke-width="0.2" stroke-miterlimit="10"/>
<g filter="url(#filter0_ii_4350_2576)">
<path d="M10.4361 8.48999C10.1451 8.79799 9.97314 9.27599 9.97314 9.89499V32.011C9.97314 32.631 10.1451 33.108 10.4361 33.416L10.5101 33.488L22.8991 21.099V20.953V20.807L10.5101 8.41699L10.4361 8.48999Z" fill="url(#paint0_linear_4350_2576)"/>
<path d="M27.0279 25.2298L22.8989 21.0988V20.9528V20.8068L27.0289 16.6768L27.1219 16.7298L32.0149 19.5098C33.4119 20.3038 33.4119 21.6028 32.0149 22.3978L27.1219 25.1778L27.0279 25.2298Z" fill="url(#paint1_linear_4350_2576)"/>
<g filter="url(#filter1_i_4350_2576)">
<path d="M27.122 25.1771L22.898 20.9531L10.436 33.4161C10.896 33.9041 11.657 33.9641 12.514 33.4781L27.122 25.1771Z" fill="url(#paint2_linear_4350_2576)"/>
</g>
<path d="M27.122 16.7288L12.514 8.42885C11.657 7.94185 10.896 8.00285 10.436 8.49085L22.899 20.9538L27.122 16.7288Z" fill="url(#paint3_linear_4350_2576)"/>
</g>
<defs>
<filter id="filter0_ii_4350_2576" x="9.97314" y="8.09277" width="23.0894" height="25.7207" filterUnits="userSpaceOnUse" color-interpolation-filters="sRGB">
<feFlood flood-opacity="0" result="BackgroundImageFix"/>
<feBlend mode="normal" in="SourceGraphic" in2="BackgroundImageFix" result="shape"/>
<feColorMatrix in="SourceAlpha" type="matrix" values="0 0 0 0 0 0 0 0 0 0 0 0 0 0 0 0 0 0 127 0" result="hardAlpha"/>
<feOffset dy="-0.15"/>
<feComposite in2="hardAlpha" operator="arithmetic" k2="-1" k3="1"/>
<feColorMatrix type="matrix" values="0 0 0 0 0 0 0 0 0 0 0 0 0 0 0 0 0 0 0.12 0"/>
<feBlend mode="normal" in2="shape" result="effect1_innerShadow_4350_2576"/>
<feColorMatrix in="SourceAlpha" type="matrix" values="0 0 0 0 0 0 0 0 0 0 0 0 0 0 0 0 0 0 127 0" result="hardAlpha"/>
<feOffset dy="0.15"/>
<feComposite in2="hardAlpha" operator="arithmetic" k2="-1" k3="1"/>
<feColorMatrix type="matrix" values="0 0 0 0 1 0 0 0 0 1 0 0 0 0 1 0 0 0 0.25 0"/>
<feBlend mode="normal" in2="effect1_innerShadow_4350_2576" result="effect2_innerShadow_4350_2576"/>
</filter>
<filter id="filter1_i_4350_2576" x="10.436" y="20.9531" width="16.686" height="12.8604" filterUnits="userSpaceOnUse" color-interpolation-filters="sRGB">
<feFlood flood-opacity="0" result="BackgroundImageFix"/>
<feBlend mode="normal" in="SourceGraphic" in2="BackgroundImageFix" result="shape"/>
<feColorMatrix in="SourceAlpha" type="matrix" values="0 0 0 0 0 0 0 0 0 0 0 0 0 0 0 0 0 0 127 0" result="hardAlpha"/>
<feOffset dy="-0.15"/>
<feComposite in2="hardAlpha" operator="arithmetic" k2="-1" k3="1"/>
<feColorMatrix type="matrix" values="0 0 0 0 0 0 0 0 0 0 0 0 0 0 0 0 0 0 0.08 0"/>
<feBlend mode="normal" in2="shape" result="effect1_innerShadow_4350_2576"/>
</filter>
<linearGradient id="paint0_linear_4350_2576" x1="21.8009" y1="9.66099" x2="5.01895" y2="26.443" gradientUnits="userSpaceOnUse">
<stop stop-color="#00A0FF"/>
<stop offset="0.0066" stop-color="#00A1FF"/>
<stop offset="0.2601" stop-color="#00BEFF"/>
<stop offset="0.5122" stop-color="#00D2FF"/>
<stop offset="0.7604" stop-color="#00DFFF"/>
<stop offset="1" stop-color="#00E3FF"/>
</linearGradient>
<linearGradient id="paint1_linear_4350_2576" x1="33.8334" y1="20.9528" x2="9.63753" y2="20.9528" gradientUnits="userSpaceOnUse">
<stop stop-color="#FFE000"/>
<stop offset="0.4087" stop-color="#FFBD00"/>
<stop offset="0.7754" stop-color="#FFA500"/>
<stop offset="1" stop-color="#FF9C00"/>
</linearGradient>
<linearGradient id="paint2_linear_4350_2576" x1="24.8281" y1="23.247" x2="2.06964" y2="46.0055" gradientUnits="userSpaceOnUse">
<stop stop-color="#FF3A44"/>
<stop offset="1" stop-color="#C31162"/>
</linearGradient>
<linearGradient id="paint3_linear_4350_2576" x1="7.29743" y1="1.12865" x2="17.4597" y2="11.291" gradientUnits="userSpaceOnUse">
<stop stop-color="#32A071"/>
<stop offset="0.0685" stop-color="#2DA771"/>
<stop offset="0.4762" stop-color="#15CF74"/>
<stop offset="0.8009" stop-color="#06E775"/>
<stop offset="1" stop-color="#00F076"/>
</linearGradient>
</defs>
</svg>
