<svg width="26" height="28" viewBox="0 0 26 28" fill="none" xmlns="http://www.w3.org/2000/svg">
<path fill-rule="evenodd" clip-rule="evenodd" d="M8.45508 10.227C8.45508 7.71659 10.4901 5.68152 13.0005 5.68152C15.5109 5.68152 17.546 7.71659 17.546 10.227C17.546 12.7373 15.5109 14.7724 13.0005 14.7724C10.4901 14.7724 8.45508 12.7373 8.45508 10.227ZM13.0005 7.95425C11.7453 7.95425 10.7278 8.97178 10.7278 10.227C10.7278 11.4822 11.7453 12.4997 13.0005 12.4997C14.2558 12.4997 15.2733 11.4822 15.2733 10.227C15.2733 8.97178 14.2558 7.95425 13.0005 7.95425Z" fill="#FDFDFD"/>
<path fill-rule="evenodd" clip-rule="evenodd" d="M13.0007 22.727L13.7226 23.6045C13.3032 23.9496 12.6978 23.9493 12.2783 23.6043L12.2699 23.5973L12.248 23.5792L12.22 23.5558L12.1672 23.5115C12.0972 23.4526 11.9961 23.3668 11.8681 23.2565C11.6122 23.0359 11.2486 22.7167 10.8133 22.3184C9.94398 21.5233 8.78122 20.4063 7.61481 19.1246C6.4524 17.8474 5.26313 16.381 4.35826 14.887C3.46859 13.4179 2.77344 11.7927 2.77344 10.227C2.77344 4.57866 7.35235 -0.000244141 13.0007 -0.000244141C18.6491 -0.000244141 23.228 4.57866 23.228 10.227C23.228 11.7927 22.5329 13.4179 21.6432 14.887C20.7383 16.381 19.549 17.8474 18.3866 19.1246C17.2201 20.4063 16.0574 21.5233 15.1882 22.3184C14.7528 22.7167 14.3892 23.0359 14.1333 23.2565C14.0054 23.3668 13.9042 23.4526 13.8342 23.5115C13.7993 23.5409 13.7722 23.5635 13.7534 23.5792L13.7315 23.5973L13.7237 23.6037C13.7237 23.6037 13.7226 23.6045 13.0007 22.727ZM13.0007 2.27248C8.60754 2.27248 5.04616 5.83386 5.04616 10.227C5.04616 11.1717 5.48738 12.3642 6.30226 13.7096C7.10193 15.03 8.18538 16.3749 9.2957 17.595C10.402 18.8107 11.512 19.8774 12.3473 20.6415C12.5915 20.865 12.8117 21.0619 13.0007 21.2286C13.1897 21.0619 13.4099 20.865 13.6541 20.6415C14.4895 19.8774 15.5995 18.8107 16.7057 17.595C17.8161 16.3749 18.8995 15.03 19.6991 13.7096C20.514 12.3642 20.9553 11.1717 20.9553 10.227C20.9553 5.83386 17.3939 2.27248 13.0007 2.27248ZM12.2783 23.6043C12.2783 23.6043 12.2788 23.6045 13.0007 22.727L12.2783 23.6043Z" fill="#FDFDFD"/>
<path d="M3.2032 22.3158C2.89128 22.5338 2.80298 22.6766 2.77938 22.7275C2.80269 22.7777 2.88855 22.9159 3.1868 23.1275C3.62062 23.4352 4.32211 23.7587 5.29123 24.0495C7.21499 24.6267 9.94075 25.0001 13 25.0001C16.0592 25.0001 18.785 24.6267 20.7088 24.0495C21.6778 23.7587 22.3793 23.4352 22.8132 23.1275C23.1115 22.9159 23.1973 22.7777 23.2206 22.7275C23.197 22.6766 23.1088 22.5338 22.7968 22.3158C22.3489 22.0025 21.6269 21.675 20.634 21.3829C20.0318 21.2059 19.6873 20.5743 19.8643 19.9721C20.0415 19.3701 20.6731 19.0255 21.2751 19.2026C22.3859 19.5293 23.3686 19.9422 24.0992 20.4533C24.798 20.9418 25.5 21.6928 25.5 22.7274C25.5 23.7489 24.8148 24.4942 24.1281 24.9812C23.4118 25.4892 22.4491 25.9002 21.3618 26.2263C19.1727 26.8832 16.2167 27.2728 13 27.2728C9.78328 27.2728 6.82723 26.8832 4.63816 26.2263C3.55086 25.9002 2.58818 25.4892 1.87195 24.9812C1.18524 24.4942 0.5 23.7489 0.5 22.7274C0.5 21.6928 1.20209 20.9418 1.90075 20.4533C2.63141 19.9422 3.61405 19.5293 4.72483 19.2026C5.32693 19.0255 5.95858 19.3701 6.13565 19.9721C6.31273 20.5743 5.96817 21.2059 5.36608 21.3829C4.37305 21.675 3.65114 22.0025 3.2032 22.3158Z" fill="#FDFDFD"/>
</svg>
