<svg width="40" height="41" viewBox="0 0 40 41" fill="none" xmlns="http://www.w3.org/2000/svg">
<g clip-path="url(#clip0_4907_592)">
<path d="M21.6667 34.7715C20.1583 35.8182 17.7333 35.2582 17.2083 33.0882C17.1018 32.6485 16.893 32.2402 16.5988 31.8965C16.3047 31.5528 15.9335 31.2834 15.5156 31.1103C15.0976 30.9371 14.6447 30.8651 14.1937 30.9001C13.7427 30.9351 13.3063 31.076 12.92 31.3115C10.3483 32.8782 7.40333 29.9349 8.97 27.3615C9.20517 26.9754 9.34592 26.5393 9.38081 26.0886C9.41569 25.6379 9.34374 25.1853 9.17079 24.7676C8.99783 24.3499 8.72877 23.9789 8.38545 23.6848C8.04214 23.3907 7.63427 23.1817 7.195 23.0749C4.26833 22.3649 4.26833 18.2015 7.195 17.4915C7.63467 17.385 8.04296 17.1762 8.38667 16.882C8.73037 16.5879 8.99976 16.2167 9.17291 15.7988C9.34606 15.3808 9.41808 14.9279 9.38311 14.4769C9.34814 14.0259 9.20717 13.5895 8.97167 13.2032C7.405 10.6315 10.3483 7.68654 12.9217 9.2532C14.5883 10.2665 16.7483 9.36987 17.2083 7.4782C17.9183 4.55154 22.0817 4.55154 22.7917 7.4782C22.8982 7.91787 23.107 8.32617 23.4012 8.66987C23.6953 9.01357 24.0665 9.28296 24.4844 9.45611C24.9024 9.62927 25.3553 9.70129 25.8063 9.66632C26.2573 9.63135 26.6937 9.49037 27.08 9.25487C29.6517 7.6882 32.5967 10.6315 31.03 13.2049C30.7948 13.591 30.6541 14.0271 30.6192 14.4778C30.5843 14.9286 30.6563 15.3812 30.8292 15.7988C31.0022 16.2165 31.2712 16.5875 31.6145 16.8816C31.9579 17.1757 32.3657 17.3847 32.805 17.4915C35.2917 18.0949 35.665 21.1899 33.9283 22.5415" stroke="#7F56D9" stroke-width="3.33333" stroke-linecap="round" stroke-linejoin="round"/>
<path d="M15 20.2832C15 21.6093 15.5268 22.8811 16.4645 23.8187C17.4021 24.7564 18.6739 25.2832 20 25.2832C21.3261 25.2832 22.5979 24.7564 23.5355 23.8187C24.4732 22.8811 25 21.6093 25 20.2832C25 18.9571 24.4732 17.6854 23.5355 16.7477C22.5979 15.81 21.3261 15.2832 20 15.2832C18.6739 15.2832 17.4021 15.81 16.4645 16.7477C15.5268 17.6854 15 18.9571 15 20.2832Z" stroke="#7F56D9" stroke-width="3.33333" stroke-linecap="round" stroke-linejoin="round"/>
<path d="M28.334 36.9507L36.6673 31.9507L28.334 26.9507V36.9507Z" stroke="#7F56D9" stroke-width="3.33333" stroke-linecap="round" stroke-linejoin="round"/>
</g>
<defs>
<clipPath id="clip0_4907_592">
<rect width="40" height="40" fill="white" transform="translate(0 0.283203)"/>
</clipPath>
</defs>
</svg>
