<svg width="40" height="41" viewBox="0 0 40 41" fill="none" xmlns="http://www.w3.org/2000/svg">
<g clip-path="url(#clip0_4907_2465)">
<path d="M5 20.2832C5 22.253 5.38799 24.2036 6.14181 26.0235C6.89563 27.8433 8.00052 29.4969 9.3934 30.8898C10.7863 32.2827 12.4399 33.3876 14.2597 34.1414C16.0796 34.8952 18.0302 35.2832 20 35.2832C21.9698 35.2832 23.9204 34.8952 25.7403 34.1414C27.5601 33.3876 29.2137 32.2827 30.6066 30.8898C31.9995 29.4969 33.1044 27.8433 33.8582 26.0235C34.612 24.2036 35 22.253 35 20.2832C35 18.3134 34.612 16.3628 33.8582 14.543C33.1044 12.7231 31.9995 11.0695 30.6066 9.6766C29.2137 8.28372 27.5601 7.17883 25.7403 6.42501C23.9204 5.67119 21.9698 5.2832 20 5.2832C18.0302 5.2832 16.0796 5.67119 14.2597 6.42501C12.4399 7.17883 10.7863 8.28372 9.3934 9.6766C8.00052 11.0695 6.89563 12.7231 6.14181 14.543C5.38799 16.3628 5 18.3134 5 20.2832Z" stroke="#7F56D9" stroke-width="3.33333" stroke-linecap="round" stroke-linejoin="round"/>
<path d="M16.6667 27.7832L20 22.7832M20 22.7832L23.3333 27.7832M20 22.7832V19.4499M20 19.4499L25 17.7832M20 19.4499L15 17.7832" stroke="#7F56D9" stroke-width="3.33333" stroke-linecap="round" stroke-linejoin="round"/>
<path d="M19.9998 13.6166C20.4601 13.6166 20.8332 13.2435 20.8332 12.7833C20.8332 12.323 20.4601 11.95 19.9998 11.95C19.5396 11.95 19.1665 12.323 19.1665 12.7833C19.1665 13.2435 19.5396 13.6166 19.9998 13.6166Z" fill="#7F56D9" stroke="#7F56D9" stroke-width="3.33333" stroke-linecap="round" stroke-linejoin="round"/>
</g>
<defs>
<clipPath id="clip0_4907_2465">
<rect width="40" height="40" fill="white" transform="translate(0 0.283203)"/>
</clipPath>
</defs>
</svg>
