<svg width="98" height="57" viewBox="0 0 98 57" fill="none" xmlns="http://www.w3.org/2000/svg">
<path d="M5.03007 4.18042L8.07783 27.9466C8.28059 29.5391 10.404 29.9378 11.1752 28.5302L15.9816 19.7429C16.2506 19.253 16.7461 18.9313 17.2999 18.8872L27.2892 18.0701C28.8889 17.9386 29.3864 15.8363 28.0144 15.0028L7.53438 2.55248C6.3473 1.83372 4.85413 2.80299 5.03007 4.18042Z" fill="#161D27"/>
<path d="M18 25H62C70.8366 25 78 32.1634 78 41C78 49.8366 70.8366 57 62 57H34C25.1634 57 18 49.8366 18 41V25Z" fill="#917DFF"/>
<path d="M37.88 47V42.208L34 35.48H35.656L38.6 40.576L41.536 35.48H43.192L39.32 42.208V47H37.88ZM46.7063 47.24C45.8476 47.24 45.1063 47.0453 44.4823 46.656C43.8636 46.2667 43.3863 45.728 43.0503 45.04C42.7143 44.352 42.5463 43.5627 42.5463 42.672C42.5463 41.7653 42.7169 40.9707 43.0583 40.288C43.3996 39.6053 43.8823 39.0747 44.5063 38.696C45.1303 38.312 45.8636 38.12 46.7063 38.12C47.5703 38.12 48.3143 38.3147 48.9383 38.704C49.5623 39.088 50.0396 39.624 50.3703 40.312C50.7063 40.9947 50.8743 41.7813 50.8743 42.672C50.8743 43.5733 50.7063 44.368 50.3703 45.056C50.0343 45.7387 49.5543 46.2747 48.9303 46.664C48.3063 47.048 47.5649 47.24 46.7063 47.24ZM46.7063 45.888C47.6023 45.888 48.2689 45.5893 48.7063 44.992C49.1436 44.3947 49.3623 43.6213 49.3623 42.672C49.3623 41.696 49.1409 40.92 48.6983 40.344C48.2556 39.7627 47.5916 39.472 46.7063 39.472C46.1036 39.472 45.6076 39.608 45.2183 39.88C44.8289 40.152 44.5383 40.528 44.3463 41.008C44.1543 41.488 44.0583 42.0427 44.0583 42.672C44.0583 43.6427 44.2823 44.4213 44.7303 45.008C45.1783 45.5947 45.8369 45.888 46.7063 45.888ZM55.9156 47.224C55.361 47.224 54.8836 47.136 54.4836 46.96C54.089 46.784 53.761 46.5493 53.4996 46.256C53.2383 45.9627 53.033 45.6373 52.8836 45.28C52.7343 44.9227 52.6276 44.5573 52.5636 44.184C52.505 43.8107 52.4756 43.4613 52.4756 43.136V38.36H53.9156V42.688C53.9156 43.0933 53.953 43.4853 54.0276 43.864C54.1023 44.2427 54.2276 44.584 54.4036 44.888C54.585 45.192 54.825 45.432 55.1236 45.608C55.4276 45.784 55.8063 45.872 56.2596 45.872C56.617 45.872 56.9423 45.8107 57.2356 45.688C57.529 45.5653 57.7796 45.384 57.9876 45.144C58.1956 44.8987 58.3556 44.5893 58.4676 44.216C58.5796 43.8427 58.6356 43.408 58.6356 42.912L59.5716 43.2C59.5716 44.032 59.4196 44.7493 59.1156 45.352C58.817 45.9547 58.393 46.4187 57.8436 46.744C57.2996 47.064 56.657 47.224 55.9156 47.224ZM58.7956 47V44.688H58.6356V38.36H60.0676V47H58.7956Z" fill="white"/>
</svg>
