<svg width="102" height="57" viewBox="0 0 102 57" fill="none" xmlns="http://www.w3.org/2000/svg">
<path d="M94.3277 3.50355L73.5745 15.4795C72.1833 16.2806 72.6341 18.3935 74.2303 18.5624L84.1914 19.6089C84.7471 19.6681 85.235 20.0013 85.4892 20.4953L90.0949 29.3971C90.833 30.8224 92.9646 30.4708 93.2046 28.8835L96.7954 5.18651C97.0009 3.81408 95.5308 2.8101 94.3277 3.50355Z" fill="#161D27"/>
<path d="M0 41C0 32.1634 7.16344 25 16 25H80V41C80 49.8366 72.8366 57 64 57H16C7.16344 57 0 49.8366 0 41Z" fill="#C9FF85"/>
<path d="M16.32 47L20.176 35.48H22.16L26.016 47H24.536L20.928 36.312H21.376L17.8 47H16.32ZM18.176 44.304V42.968H24.16V44.304H18.176ZM33.6001 47V42.672C33.6001 42.2613 33.5628 41.8667 33.4881 41.488C33.4188 41.1093 33.2935 40.7707 33.1121 40.472C32.9361 40.168 32.6961 39.928 32.3921 39.752C32.0935 39.576 31.7148 39.488 31.2561 39.488C30.8988 39.488 30.5735 39.5493 30.2801 39.672C29.9921 39.7893 29.7441 39.9707 29.5361 40.216C29.3281 40.4613 29.1655 40.7707 29.0481 41.144C28.9361 41.512 28.8801 41.9467 28.8801 42.448L27.9441 42.16C27.9441 41.3227 28.0935 40.6053 28.3921 40.008C28.6961 39.4053 29.1201 38.944 29.6641 38.624C30.2135 38.2987 30.8588 38.136 31.6001 38.136C32.1601 38.136 32.6375 38.224 33.0321 38.4C33.4268 38.576 33.7548 38.8107 34.0161 39.104C34.2775 39.392 34.4828 39.7173 34.6321 40.08C34.7815 40.4373 34.8855 40.8027 34.9441 41.176C35.0081 41.544 35.0401 41.8933 35.0401 42.224V47H33.6001ZM27.4401 47V35.48H28.7201V41.84H28.8801V47H27.4401ZM40.384 47.232C39.3547 47.232 38.5093 47.008 37.848 46.56C37.192 46.1067 36.7893 45.4747 36.64 44.664L38.096 44.432C38.2133 44.9013 38.4827 45.2747 38.904 45.552C39.3253 45.824 39.848 45.96 40.472 45.96C41.064 45.96 41.528 45.8373 41.864 45.592C42.2 45.3467 42.368 45.0133 42.368 44.592C42.368 44.3467 42.312 44.1493 42.2 44C42.088 43.8453 41.856 43.7013 41.504 43.568C41.1573 43.4347 40.632 43.2747 39.928 43.088C39.1653 42.8853 38.5653 42.6747 38.128 42.456C37.6907 42.2373 37.3787 41.984 37.192 41.696C37.0053 41.408 36.912 41.0587 36.912 40.648C36.912 40.1413 37.0507 39.6987 37.328 39.32C37.6053 38.936 37.992 38.64 38.488 38.432C38.9893 38.224 39.5707 38.12 40.232 38.12C40.888 38.12 41.4747 38.224 41.992 38.432C42.5093 38.64 42.9253 38.936 43.24 39.32C43.56 39.6987 43.7493 40.1413 43.808 40.648L42.352 40.912C42.2827 40.448 42.0587 40.0827 41.68 39.816C41.3067 39.5493 40.824 39.408 40.232 39.392C39.672 39.3707 39.216 39.4693 38.864 39.688C38.5173 39.9067 38.344 40.2027 38.344 40.576C38.344 40.784 38.408 40.9627 38.536 41.112C38.6693 41.2613 38.912 41.4027 39.264 41.536C39.6213 41.6693 40.1387 41.8213 40.816 41.992C41.5787 42.184 42.1787 42.3947 42.616 42.624C43.0587 42.848 43.3733 43.1147 43.56 43.424C43.7467 43.728 43.84 44.104 43.84 44.552C43.84 45.384 43.5333 46.04 42.92 46.52C42.3067 46.9947 41.4613 47.232 40.384 47.232ZM48.0604 47.24C47.415 47.24 46.8737 47.1227 46.4364 46.888C46.0044 46.648 45.6764 46.3333 45.4524 45.944C45.2337 45.5547 45.1244 45.128 45.1244 44.664C45.1244 44.2107 45.2097 43.8187 45.3804 43.488C45.5564 43.152 45.8017 42.8747 46.1164 42.656C46.431 42.432 46.807 42.256 47.2444 42.128C47.655 42.016 48.1137 41.92 48.6204 41.84C49.1324 41.7547 49.6497 41.6773 50.1724 41.608C50.695 41.5387 51.183 41.472 51.6364 41.408L51.1244 41.704C51.1404 40.936 50.9857 40.368 50.6604 40C50.3404 39.632 49.7857 39.448 48.9964 39.448C48.4737 39.448 48.015 39.568 47.6204 39.808C47.231 40.0427 46.9564 40.4267 46.7964 40.96L45.4444 40.552C45.6524 39.7947 46.055 39.2 46.6524 38.768C47.2497 38.336 48.0364 38.12 49.0124 38.12C49.7964 38.12 50.4684 38.2613 51.0284 38.544C51.5937 38.8213 51.999 39.2427 52.2444 39.808C52.367 40.0747 52.4444 40.3653 52.4764 40.68C52.5084 40.9893 52.5244 41.3147 52.5244 41.656V47H51.2604V44.928L51.5564 45.12C51.231 45.8187 50.775 46.3467 50.1884 46.704C49.607 47.0613 48.8977 47.24 48.0604 47.24ZM48.2764 46.048C48.7884 46.048 49.231 45.9573 49.6044 45.776C49.983 45.5893 50.287 45.3467 50.5164 45.048C50.7457 44.744 50.895 44.4133 50.9644 44.056C51.0444 43.7893 51.087 43.4933 51.0924 43.168C51.103 42.8373 51.1084 42.584 51.1084 42.408L51.6044 42.624C51.1404 42.688 50.6844 42.7493 50.2364 42.808C49.7884 42.8667 49.3644 42.9307 48.9644 43C48.5644 43.064 48.2044 43.1413 47.8844 43.232C47.6497 43.3067 47.4284 43.4027 47.2204 43.52C47.0177 43.6373 46.8524 43.7893 46.7244 43.976C46.6017 44.1573 46.5404 44.384 46.5404 44.656C46.5404 44.8907 46.599 45.1147 46.7164 45.328C46.839 45.5413 47.0257 45.7147 47.2764 45.848C47.5324 45.9813 47.8657 46.048 48.2764 46.048ZM60.7564 47V42.672C60.7564 42.2613 60.719 41.8667 60.6444 41.488C60.575 41.1093 60.4497 40.7707 60.2684 40.472C60.0924 40.168 59.8524 39.928 59.5484 39.752C59.2497 39.576 58.871 39.488 58.4124 39.488C58.055 39.488 57.7297 39.5493 57.4364 39.672C57.1484 39.7893 56.9004 39.9707 56.6924 40.216C56.4844 40.4613 56.3217 40.7707 56.2044 41.144C56.0924 41.512 56.0364 41.9467 56.0364 42.448L55.1004 42.16C55.1004 41.3227 55.2497 40.6053 55.5484 40.008C55.8524 39.4053 56.2764 38.944 56.8204 38.624C57.3697 38.2987 58.015 38.136 58.7564 38.136C59.3164 38.136 59.7937 38.224 60.1884 38.4C60.583 38.576 60.911 38.8107 61.1724 39.104C61.4337 39.392 61.639 39.7173 61.7884 40.08C61.9377 40.4373 62.0417 40.8027 62.1004 41.176C62.1644 41.544 62.1964 41.8933 62.1964 42.224V47H60.7564ZM54.5964 47V38.36H55.8764V40.672H56.0364V47H54.5964Z" fill="#404040"/>
</svg>
