<svg width="25" height="25" viewBox="0 0 25 25" fill="none" xmlns="http://www.w3.org/2000/svg">
<path d="M19.3527 13.5398C19.2306 13.4176 19.0856 13.3206 18.9261 13.2544C18.7665 13.1882 18.5954 13.1541 18.4227 13.1541C18.2499 13.1541 18.0788 13.1882 17.9193 13.2544C17.7597 13.3206 17.6147 13.4176 17.4927 13.5398L15.3959 15.6366C14.4238 15.3472 12.6098 14.6895 11.4602 13.5398C10.3105 12.3902 9.6528 10.5762 9.3634 9.6041L11.4602 7.50733C11.5824 7.38528 11.6794 7.24032 11.7456 7.08074C11.8118 6.92116 11.8459 6.75009 11.8459 6.57734C11.8459 6.40458 11.8118 6.23352 11.7456 6.07394C11.6794 5.91436 11.5824 5.76939 11.4602 5.64734L6.19852 0.385681C6.07646 0.263419 5.9315 0.166423 5.77192 0.100244C5.61234 0.0340641 5.44128 0 5.26852 0C5.09576 0 4.9247 0.0340641 4.76512 0.100244C4.60554 0.166423 4.46058 0.263419 4.33852 0.385681L0.771118 3.95309C0.27126 4.45294 -0.0102385 5.13959 0.000284846 5.8407C0.0305394 7.71385 0.526451 14.2199 5.65394 19.3474C10.7814 24.4749 17.2875 24.9695 19.1619 25.001H19.1988C19.8933 25.001 20.5497 24.7274 21.0469 24.2302L24.6143 20.6628C24.7366 20.5407 24.8336 20.3958 24.8998 20.2362C24.9659 20.0766 25 19.9056 25 19.7328C25 19.56 24.9659 19.389 24.8998 19.2294C24.8336 19.0698 24.7366 18.9249 24.6143 18.8028L19.3527 13.5398ZM19.1856 22.3689C17.544 22.3413 11.9271 21.9006 7.51393 17.4861C3.08625 13.0584 2.65742 7.42183 2.63111 5.81308L5.26852 3.17568L8.67018 6.57734L6.96935 8.27817C6.81474 8.43266 6.70106 8.62325 6.63859 8.8327C6.57612 9.04216 6.56683 9.26388 6.61156 9.47783C6.64313 9.6291 7.41528 13.2162 9.59886 15.3998C11.7825 17.5834 15.3696 18.3556 15.5209 18.3871C15.7347 18.4331 15.9566 18.4246 16.1663 18.3623C16.3759 18.3 16.5665 18.1859 16.7205 18.0306L18.4227 16.3298L21.8243 19.7315L19.1856 22.3689Z" fill="#FDFDFD"/>
</svg>
