<svg width="26" height="27" viewBox="0 0 26 27" fill="none" xmlns="http://www.w3.org/2000/svg">
<g clip-path="url(#clip0_2168_15941)">
<path d="M13 0.152344C5.82039 0.152344 0 5.97264 0 13.1523C0 20.3321 5.82039 26.1523 13 26.1523C20.1796 26.1523 26 20.3321 26 13.1523C26 5.97264 20.1796 0.152344 13 0.152344ZM17.4931 13.8414L10.9931 17.9039C10.8616 17.9861 10.7121 18.0273 10.5625 18.0273C10.427 18.0273 10.2913 17.9936 10.1685 17.9254C9.91027 17.7822 9.75 17.5104 9.75 17.2148V9.08984C9.75 8.7943 9.91027 8.52252 10.1685 8.37931C10.4268 8.2353 10.7426 8.24403 10.9931 8.40074L17.4931 12.4632C17.7306 12.612 17.875 12.8723 17.875 13.1523C17.875 13.4324 17.7306 13.6927 17.4931 13.8414Z" fill="white"/>
</g>
<defs>
<clipPath id="clip0_2168_15941">
<rect width="26" height="26" fill="white" transform="translate(0 0.152344)"/>
</clipPath>
</defs>
</svg>
