<svg width="40" height="41" viewBox="0 0 40 41" fill="none" xmlns="http://www.w3.org/2000/svg">
<path d="M9.83492 18.515C10.1862 15.8514 12.5408 13.4404 16.8477 11.3395L17.6232 10.9611L14.4436 5.09082L13.7258 5.45465C4.61805 10.0714 0 16.5961 0 24.8475C0 27.6945 0.90375 30.1534 2.68633 32.1561C4.49391 34.1866 6.6875 35.2162 9.20664 35.2162C11.4702 35.2162 13.3895 34.4102 14.9114 32.8203C16.4234 31.2406 17.19 29.2785 17.19 26.9883C17.19 24.8243 16.4156 22.8957 14.8884 21.2561C13.5413 19.81 11.844 18.89 9.83492 18.515ZM13.7164 31.6764C12.5019 32.9453 11.0267 33.562 9.20664 33.562C7.15156 33.562 5.42297 32.7423 3.92211 31.0561C2.39602 29.3418 1.65414 27.3109 1.65414 24.8474C1.65414 21.0656 2.71906 17.6513 4.81914 14.6995C6.82297 11.8832 9.82844 9.39668 13.7598 7.30105L15.3527 10.2418C10.562 12.7523 8.13477 15.7701 8.13477 19.2203V19.959L8.86875 20.0421C10.8459 20.266 12.4188 21.0318 13.678 22.3836C14.928 23.7256 15.5358 25.2319 15.5358 26.9882C15.5359 28.8639 14.9406 30.3973 13.7164 31.6764Z" fill="url(#paint0_linear_2168_15944)"/>
<path d="M32.2814 18.5176C32.6286 15.8518 34.9637 13.4396 39.2361 11.3385L39.9997 10.9629L36.8991 5.08838L36.1742 5.45416C27.0248 10.0707 22.3857 16.5956 22.3857 24.8477C22.3857 27.6965 23.3011 30.1567 25.1061 32.1599C26.9337 34.188 29.1364 35.2163 31.6535 35.2163C33.9198 35.2163 35.8304 34.4088 37.332 32.816C38.8207 31.2369 39.5757 29.2763 39.5757 26.9885C39.5757 24.8243 38.8013 22.8957 37.2742 21.2563C35.9299 19.8132 34.253 18.8941 32.2814 18.5176ZM36.1286 31.6812C34.935 32.947 33.4714 33.5623 31.6535 33.5623C29.5964 33.5623 27.8567 32.7414 26.335 31.0527C24.7905 29.3388 24.0398 27.3092 24.0398 24.8477C24.0398 21.0665 25.1096 17.6528 27.2189 14.7013C29.2317 11.8856 32.2501 9.39947 36.1982 7.30408L37.7479 10.2403C32.9918 12.7517 30.5818 15.7701 30.5818 19.2206V19.9577L31.3139 20.0422C33.2505 20.2657 34.8041 21.0317 36.0639 22.3838C37.3139 23.7258 37.9215 25.232 37.9215 26.9885C37.9216 28.8665 37.335 30.4016 36.1286 31.6812Z" fill="url(#paint1_linear_2168_15944)"/>
<defs>
<linearGradient id="paint0_linear_2168_15944" x1="8.964" y1="34.9535" x2="8.964" y2="5.32923" gradientUnits="userSpaceOnUse">
<stop stop-color="#976EF1"/>
<stop offset="1" stop-color="#7F56D9"/>
</linearGradient>
<linearGradient id="paint1_linear_2168_15944" x1="31.3451" y1="34.9536" x2="31.3451" y2="5.32681" gradientUnits="userSpaceOnUse">
<stop stop-color="#976EF1"/>
<stop offset="1" stop-color="#7F56D9"/>
</linearGradient>
</defs>
</svg>
