<svg width="36" height="37" viewBox="0 0 36 37" fill="none" xmlns="http://www.w3.org/2000/svg">
<path d="M4 34.2729H6.5C7.60254 34.2729 8.5 33.3755 8.5 32.2729V28.813C8.5 27.7104 7.60254 26.813 6.5 26.813H4C2.89746 26.813 2 27.7104 2 28.813V32.2729C2 33.3755 2.89746 34.2729 4 34.2729ZM4 28.813H6.5L6.50195 32.2729H4V28.813Z" fill="#7F56D9"/>
<path d="M12.5 34.2729H15C16.1025 34.2729 17 33.3755 17 32.2729V19.8735C17 18.771 16.1025 17.8735 15 17.8735H12.5C11.3975 17.8735 10.5 18.771 10.5 19.8735V32.2729C10.5 33.3755 11.3975 34.2729 12.5 34.2729ZM12.5 19.8735H15L15.002 32.2729H12.5V19.8735Z" fill="#7F56D9"/>
<path d="M21 21.353C19.8975 21.353 19 22.2505 19 23.353V32.2729C19 33.3755 19.8975 34.2729 21 34.2729H23.5C24.6025 34.2729 25.5 33.3755 25.5 32.2729V23.353C25.5 22.2505 24.6025 21.353 23.5 21.353H21ZM21 32.2729V23.353H23.5L23.502 32.2729H21Z" fill="#7F56D9"/>
<path d="M34 32.2729V12.853C34 11.7505 33.1025 10.853 32 10.853H29.5C28.3975 10.853 27.5 11.7505 27.5 12.853V32.2729C27.5 33.3755 28.3975 34.2729 29.5 34.2729H32C33.1025 34.2729 34 33.3755 34 32.2729ZM29.5 12.853H32L32.002 32.2729H29.5V12.853Z" fill="#7F56D9"/>
<path d="M5.94727 17.02L13.4932 9.47412C13.79 9.17822 14.2451 9.09619 14.627 9.27686L20.583 12.0786C21.7217 12.6187 23.0889 12.3794 23.9814 11.4858L31.4678 4.00049C31.8584 3.60986 31.8584 2.97705 31.4678 2.58643C31.0771 2.1958 30.4443 2.1958 30.0537 2.58643L22.5674 10.0718C22.2695 10.3696 21.8135 10.4497 21.4346 10.269L15.4785 7.46631C14.3408 6.93115 12.9717 7.16748 12.0791 8.06006L4.5332 15.606C4.14258 15.9966 4.14258 16.6294 4.5332 17.02C4.92382 17.4106 5.55663 17.4107 5.94727 17.02Z" fill="#7F56D9"/>
</svg>
