<svg width="38" height="38" viewBox="0 0 38 38" fill="none" xmlns="http://www.w3.org/2000/svg">
<path d="M3.58305 16.2002C3.42618 16.2003 3.27302 16.1526 3.14403 16.0633C3.01504 15.974 2.91637 15.8475 2.86121 15.7006C2.80605 15.5538 2.79704 15.3936 2.83536 15.2415C2.87369 15.0894 2.95754 14.9526 3.07569 14.8494L9.24236 9.45355C9.36968 9.34177 9.53034 9.27516 9.69941 9.26406C9.86847 9.25297 10.0365 9.29801 10.1773 9.3922L14.2769 12.1251L23.0797 3.32191C23.2247 3.17953 23.4201 3.10016 23.6233 3.10108C23.8265 3.102 24.0211 3.18313 24.1648 3.32682C24.3085 3.47051 24.3896 3.66513 24.3905 3.86833C24.3914 4.07154 24.3121 4.26688 24.1697 4.41187L14.9197 13.6619C14.7937 13.7879 14.628 13.8663 14.4506 13.8839C14.2733 13.9014 14.0954 13.857 13.9471 13.7582L9.81293 11.0024L4.09042 16.0094C3.95017 16.1327 3.76977 16.2005 3.58305 16.2002Z" fill="#7F56D9"/>
<path d="M23.625 8.49154C23.5238 8.49156 23.4235 8.47164 23.33 8.43291C23.2364 8.39419 23.1515 8.33741 23.0799 8.26582C23.0083 8.19424 22.9515 8.10925 22.9128 8.01572C22.8741 7.92219 22.8541 7.82194 22.8542 7.7207V4.63737H19.7708C19.5664 4.63737 19.3703 4.55616 19.2258 4.4116C19.0812 4.26704 19 4.07097 19 3.86654C19 3.6621 19.0812 3.46603 19.2258 3.32147C19.3703 3.17692 19.5664 3.0957 19.7708 3.0957H23.625C23.7262 3.09568 23.8265 3.1156 23.92 3.15433C24.0136 3.19305 24.0985 3.24983 24.1701 3.32142C24.2417 3.393 24.2985 3.47799 24.3372 3.57152C24.3759 3.66505 24.3959 3.7653 24.3958 3.86654V7.7207C24.3959 7.82194 24.3759 7.92219 24.3372 8.01572C24.2985 8.10925 24.2417 8.19424 24.1701 8.26582C24.0985 8.33741 24.0136 8.39419 23.92 8.43291C23.8265 8.47164 23.7262 8.49156 23.625 8.49154Z" fill="#7F56D9"/>
<path d="M26.7083 24.6794C26.6071 24.6794 26.5069 24.6595 26.4133 24.6207C26.3198 24.582 26.2348 24.5252 26.1632 24.4537C26.0916 24.3821 26.0349 24.2971 25.9961 24.2035C25.9574 24.11 25.9375 24.0098 25.9375 23.9085V14.6585C25.9375 14.4541 26.0187 14.258 26.1633 14.1135C26.3078 13.9689 26.5039 13.8877 26.7083 13.8877C26.9128 13.8877 27.1088 13.9689 27.2534 14.1135C27.398 14.258 27.4792 14.4541 27.4792 14.6585V23.9085C27.4792 24.0098 27.4593 24.11 27.4205 24.2035C27.3818 24.2971 27.325 24.3821 27.2535 24.4537C27.1819 24.5252 27.0969 24.582 27.0034 24.6207C26.9098 24.6595 26.8096 24.6794 26.7083 24.6794Z" fill="#7F56D9"/>
<path d="M26.7087 20.0545C25.9992 20.0966 25.3017 19.8571 24.7677 19.3881C24.2336 18.919 23.9062 18.2583 23.8564 17.5493C23.9062 16.8402 24.2336 16.1795 24.7677 15.7104C25.3017 15.2414 25.9992 15.0019 26.7087 15.0441C27.4182 15.0019 28.1157 15.2414 28.6497 15.7104C29.1837 16.1795 29.5112 16.8402 29.5609 17.5493C29.5609 17.7537 29.4797 17.9498 29.3351 18.0943C29.1906 18.2389 28.9945 18.3201 28.7901 18.3201C28.5856 18.3201 28.3896 18.2389 28.245 18.0943C28.1005 17.9498 28.0193 17.7537 28.0193 17.5493C28.0193 17.0268 27.4193 16.5857 26.7087 16.5857C25.9981 16.5857 25.3981 17.0268 25.3981 17.5493C25.3981 18.0717 25.9981 18.5128 26.7087 18.5128C26.9131 18.5128 27.1092 18.594 27.2537 18.7386C27.3983 18.8831 27.4795 19.0792 27.4795 19.2836C27.4795 19.4881 27.3983 19.6841 27.2537 19.8287C27.1092 19.9733 26.9131 20.0545 26.7087 20.0545Z" fill="#7F56D9"/>
<path d="M26.7087 23.5232C25.9992 23.5653 25.3017 23.3259 24.7677 22.8568C24.2336 22.3878 23.9062 21.727 23.8564 21.018C23.8564 20.8136 23.9377 20.6175 24.0822 20.473C24.2268 20.3284 24.4228 20.2472 24.6273 20.2472C24.8317 20.2472 25.0278 20.3284 25.1723 20.473C25.3169 20.6175 25.3981 20.8136 25.3981 21.018C25.3981 21.5404 25.9981 21.9816 26.7087 21.9816C27.4193 21.9816 28.0193 21.5404 28.0193 21.018C28.0193 20.4956 27.4193 20.0545 26.7087 20.0545C26.5042 20.0545 26.3082 19.9733 26.1636 19.8287C26.0191 19.6841 25.9378 19.4881 25.9378 19.2836C25.9378 19.0792 26.0191 18.8831 26.1636 18.7386C26.3082 18.594 26.5042 18.5128 26.7087 18.5128C27.4182 18.4707 28.1157 18.7101 28.6497 19.1792C29.1837 19.6482 29.5112 20.309 29.5609 21.018C29.5112 21.727 29.1837 22.3878 28.6497 22.8568C28.1157 23.3259 27.4182 23.5653 26.7087 23.5232Z" fill="#7F56D9"/>
<path d="M26.7082 27.762C25.0312 27.762 23.3918 27.2648 21.9974 26.333C20.603 25.4013 19.5162 24.0771 18.8744 22.5277C18.2327 20.9784 18.0648 19.2735 18.3919 17.6287C18.7191 15.9839 19.5267 14.473 20.7125 13.2872C21.8983 12.1014 23.4092 11.2938 25.054 10.9666C26.6988 10.6395 28.4036 10.8074 29.953 11.4492C31.5024 12.0909 32.8266 13.1777 33.7583 14.5721C34.69 15.9665 35.1873 17.6059 35.1873 19.2829C35.1848 21.5309 34.2906 23.6861 32.701 25.2758C31.1114 26.8654 28.9562 27.7595 26.7082 27.762ZM26.7082 12.3454C25.3361 12.3454 23.9948 12.7523 22.8539 13.5146C21.713 14.2769 20.8238 15.3604 20.2988 16.628C19.7737 17.8957 19.6363 19.2906 19.904 20.6363C20.1717 21.9821 20.8324 23.2182 21.8026 24.1884C22.7728 25.1587 24.009 25.8194 25.3547 26.0871C26.7005 26.3548 28.0954 26.2174 29.363 25.6923C30.6307 25.1672 31.7142 24.278 32.4765 23.1371C33.2388 21.9963 33.6457 20.655 33.6457 19.2829C33.6436 17.4436 32.912 15.6802 31.6114 14.3796C30.3109 13.079 28.5475 12.3475 26.7082 12.3454Z" fill="#7F56D9"/>
<path d="M32.1042 35.471H19C18.3869 35.4704 17.7991 35.2265 17.3656 34.793C16.932 34.3594 16.6882 33.7716 16.6875 33.1585V32.3877C16.6882 31.7746 16.932 31.1868 17.3656 30.7533C17.7991 30.3197 18.3869 30.0759 19 30.0752H32.1042C32.7173 30.0759 33.3051 30.3197 33.7386 30.7533C34.1721 31.1868 34.416 31.7746 34.4167 32.3877V33.1585C34.416 33.7716 34.1721 34.3594 33.7386 34.793C33.3051 35.2265 32.7173 35.4704 32.1042 35.471ZM19 31.6169C18.7956 31.6171 18.5997 31.6983 18.4552 31.8429C18.3106 31.9874 18.2294 32.1833 18.2292 32.3877V33.1585C18.2294 33.3629 18.3106 33.5588 18.4552 33.7034C18.5997 33.8479 18.7956 33.9292 19 33.9294H32.1042C32.3085 33.9292 32.5045 33.8479 32.649 33.7034C32.7935 33.5588 32.8748 33.3629 32.875 33.1585V32.3877C32.8748 32.1833 32.7935 31.9874 32.649 31.8429C32.5045 31.6983 32.3085 31.6171 32.1042 31.6169H19Z" fill="#7F56D9"/>
<path d="M32.8748 31.6165H20.5415C19.9284 31.6159 19.3406 31.372 18.9071 30.9385C18.4735 30.5049 18.2297 29.9171 18.229 29.304V28.5332C18.2297 27.9201 18.4735 27.3323 18.9071 26.8988C19.3406 26.4652 19.9284 26.2214 20.5415 26.2207H32.8748C33.4879 26.2214 34.0758 26.4652 34.5093 26.8988C34.9428 27.3323 35.1867 27.9201 35.1873 28.5332V29.304C35.1867 29.9171 34.9428 30.5049 34.5093 30.9385C34.0758 31.372 33.4879 31.6159 32.8748 31.6165ZM20.5415 27.7624C20.3371 27.7626 20.1412 27.8439 19.9967 27.9884C19.8522 28.1329 19.7709 28.3288 19.7707 28.5332V29.304C19.7709 29.5084 19.8522 29.7044 19.9967 29.8489C20.1412 29.9934 20.3371 30.0747 20.5415 30.0749H32.8748C33.0792 30.0747 33.2752 29.9934 33.4197 29.8489C33.5642 29.7044 33.6455 29.5084 33.6457 29.304V28.5332C33.6455 28.3288 33.5642 28.1329 33.4197 27.9884C33.2752 27.8439 33.0792 27.7626 32.8748 27.7624H20.5415Z" fill="#7F56D9"/>
<path d="M10.5208 22.3669C6.80818 22.3669 2.8125 21.4018 2.8125 19.2835C2.8125 17.1653 6.80818 16.2002 10.5208 16.2002C14.2335 16.2002 18.2292 17.1653 18.2292 19.2835C18.2292 21.4018 14.2335 22.3669 10.5208 22.3669ZM10.5208 17.7419C6.47473 17.7419 4.35417 18.8872 4.35417 19.2835C4.35417 19.6799 6.47473 20.8252 10.5208 20.8252C14.5669 20.8252 16.6875 19.6799 16.6875 19.2835C16.6875 18.8872 14.5669 17.7419 10.5208 17.7419Z" fill="#7F56D9"/>
<path d="M10.5208 35.471C8.01168 35.4703 5.53316 34.9198 3.25965 33.8582C3.12616 33.7964 3.01315 33.6976 2.93393 33.5737C2.8547 33.4497 2.81257 33.3057 2.8125 33.1585V28.5335C2.8125 28.4041 2.84509 28.2768 2.90726 28.1633C2.96943 28.0498 3.05918 27.9538 3.16823 27.8841C3.27728 27.8144 3.40212 27.7733 3.53124 27.7646C3.66036 27.7559 3.78959 27.7798 3.90702 27.8342C5.97857 28.7984 8.23591 29.298 10.5209 29.298C12.8058 29.2979 15.0632 28.7982 17.1346 27.8338C17.2521 27.7795 17.3814 27.7557 17.5105 27.7645C17.6396 27.7733 17.7644 27.8144 17.8734 27.8841C17.9825 27.9538 18.0722 28.0498 18.1344 28.1633C18.1965 28.2768 18.2291 28.4041 18.2292 28.5335V33.1585C18.2291 33.3056 18.187 33.4496 18.1078 33.5735C18.0286 33.6975 17.9155 33.7961 17.782 33.8579C15.5086 34.9199 13.03 35.4705 10.5208 35.471ZM4.35417 32.6579C6.3028 33.4931 8.40077 33.9237 10.5208 33.9237C12.6409 33.9237 14.7389 33.4931 16.6875 32.6579V29.6966C12.7182 31.2235 8.32349 31.2235 4.35417 29.6966V32.6579Z" fill="#7F56D9"/>
<path d="M10.5208 30.8457C8.01168 30.845 5.53316 30.2945 3.25965 29.2329C3.12616 29.171 3.01315 29.0723 2.93393 28.9483C2.8547 28.8244 2.81257 28.6803 2.8125 28.5332V24.679C2.8125 24.5496 2.84509 24.4223 2.90726 24.3088C2.96943 24.1953 3.05918 24.0993 3.16823 24.0296C3.27728 23.9599 3.40212 23.9188 3.53124 23.9101C3.66036 23.9014 3.78959 23.9253 3.90702 23.9797C5.97857 24.9439 8.23591 25.4435 10.5209 25.4435C12.8058 25.4434 15.0632 24.9437 17.1346 23.9793C17.2521 23.9251 17.3814 23.9012 17.5105 23.91C17.6396 23.9188 17.7644 23.9599 17.8734 24.0296C17.9825 24.0993 18.0722 24.1953 18.1344 24.3088C18.1965 24.4223 18.2291 24.5496 18.2292 24.679V28.5332C18.2291 28.6803 18.187 28.8243 18.1078 28.9482C18.0286 29.0721 17.9155 29.1708 17.782 29.2325C15.5086 30.2946 13.03 30.8452 10.5208 30.8457ZM4.35417 28.0326C6.3028 28.8678 8.40077 29.2984 10.5208 29.2984C12.6409 29.2984 14.7389 28.8678 16.6875 28.0326V25.8421C12.7181 27.3689 8.32352 27.3689 4.35417 25.8421V28.0326Z" fill="#7F56D9"/>
<path d="M10.5208 26.9919C8.01168 26.9912 5.53316 26.4406 3.25965 25.3791C3.12616 25.3172 3.01315 25.2185 2.93393 25.0945C2.8547 24.9705 2.81257 24.8265 2.8125 24.6794V19.2835C2.8125 19.0791 2.89371 18.883 3.03827 18.7385C3.18283 18.5939 3.3789 18.5127 3.58333 18.5127C3.78777 18.5127 3.98384 18.5939 4.12839 18.7385C4.27295 18.883 4.35417 19.0791 4.35417 19.2835V24.1788C6.3028 25.0139 8.40077 25.4446 10.5208 25.4446C12.6409 25.4446 14.7389 25.0139 16.6875 24.1788V19.2835C16.6875 19.0791 16.7687 18.883 16.9133 18.7385C17.0578 18.5939 17.2539 18.5127 17.4583 18.5127C17.6628 18.5127 17.8588 18.5939 18.0034 18.7385C18.148 18.883 18.2292 19.0791 18.2292 19.2835V24.6794C18.2291 24.8264 18.187 24.9704 18.1078 25.0944C18.0286 25.2183 17.9155 25.3169 17.782 25.3787C15.5086 26.4407 13.03 26.9914 10.5208 26.9919Z" fill="#7F56D9"/>
</svg>
