<svg width="33" height="33" viewBox="0 0 33 33" fill="none" xmlns="http://www.w3.org/2000/svg">
<g clip-path="url(#clip0_4894_4975)">
<path d="M16.7525 32.8689C13.688 32.9239 10.6779 32.0544 8.1147 30.3737C5.55152 28.6929 3.55414 26.279 2.38294 23.4465C2.36281 23.3895 2.35253 23.3294 2.35254 23.2689V9.93556C2.35254 9.79412 2.40873 9.65846 2.50875 9.55844C2.60877 9.45842 2.74442 9.40223 2.88587 9.40223C4.50827 9.40223 5.74294 8.92223 6.55681 7.97716C8.13334 6.14463 7.69654 3.11316 7.69174 3.08276C7.67915 3.00004 7.68621 2.91551 7.71234 2.83602C7.73846 2.75652 7.78293 2.68429 7.84214 2.62516L9.44214 1.02516C9.54214 0.925137 9.67777 0.868927 9.81921 0.868896L23.6859 0.868896C23.8273 0.868927 23.9629 0.925137 24.0629 1.02516L25.6629 2.62516C25.7222 2.68429 25.7666 2.75652 25.7927 2.83602C25.8189 2.91551 25.8259 3.00004 25.8133 3.08276C25.8085 3.11316 25.3717 6.14463 26.9483 7.97716C27.7621 8.92223 28.9968 9.40223 30.6192 9.40223C30.7607 9.40223 30.8963 9.45842 30.9963 9.55844C31.0963 9.65846 31.1525 9.79412 31.1525 9.93556V23.2689C31.1526 23.3294 31.1423 23.3895 31.1221 23.4465C29.9509 26.279 27.9536 28.6929 25.3904 30.3737C22.8272 32.0544 19.8171 32.9239 16.7525 32.8689ZM3.41921 23.1734C3.77921 24.1148 7.01921 31.8022 16.7525 31.8022C19.5838 31.8642 22.3684 31.0745 24.7457 29.5355C27.123 27.9966 28.9833 25.7793 30.0859 23.1708V10.4529C29.3398 10.4447 28.6034 10.2819 27.9235 9.97462C27.2435 9.66737 26.6347 9.22239 26.1355 8.66783C24.5285 6.79423 24.6411 4.0689 24.7259 3.19636L23.4651 1.93556H10.04L8.77921 3.19636C8.86401 4.0689 8.97654 6.79423 7.36961 8.66783C6.87039 9.22239 6.26156 9.66737 5.5816 9.97462C4.90163 10.2819 4.16532 10.4447 3.41921 10.4529V23.1734Z" fill="#414651"/>
<path d="M16.7526 8.33559C17.0471 8.33559 17.2859 8.09681 17.2859 7.80225C17.2859 7.5077 17.0471 7.26892 16.7526 7.26892C16.458 7.26892 16.2192 7.5077 16.2192 7.80225C16.2192 8.09681 16.458 8.33559 16.7526 8.33559Z" fill="#414651"/>
<path d="M18.8859 8.33559C19.1804 8.33559 19.4192 8.09681 19.4192 7.80225C19.4192 7.5077 19.1804 7.26892 18.8859 7.26892C18.5913 7.26892 18.3525 7.5077 18.3525 7.80225C18.3525 8.09681 18.5913 8.33559 18.8859 8.33559Z" fill="#414651"/>
<path d="M21.0192 8.33559C21.3137 8.33559 21.5525 8.09681 21.5525 7.80225C21.5525 7.5077 21.3137 7.26892 21.0192 7.26892C20.7246 7.26892 20.4858 7.5077 20.4858 7.80225C20.4858 8.09681 20.7246 8.33559 21.0192 8.33559Z" fill="#414651"/>
<path d="M23.1525 8.33559C23.447 8.33559 23.6858 8.09681 23.6858 7.80225C23.6858 7.5077 23.447 7.26892 23.1525 7.26892C22.8579 7.26892 22.6191 7.5077 22.6191 7.80225C22.6191 8.09681 22.8579 8.33559 23.1525 8.33559Z" fill="#414651"/>
<path d="M14.6193 8.33559C14.9138 8.33559 15.1526 8.09681 15.1526 7.80225C15.1526 7.5077 14.9138 7.26892 14.6193 7.26892C14.3247 7.26892 14.0859 7.5077 14.0859 7.80225C14.0859 8.09681 14.3247 8.33559 14.6193 8.33559Z" fill="#414651"/>
<path d="M12.486 8.33559C12.7805 8.33559 13.0193 8.09681 13.0193 7.80225C13.0193 7.5077 12.7805 7.26892 12.486 7.26892C12.1914 7.26892 11.9526 7.5077 11.9526 7.80225C11.9526 8.09681 12.1914 8.33559 12.486 8.33559Z" fill="#414651"/>
<path d="M10.3527 8.33559C10.6472 8.33559 10.886 8.09681 10.886 7.80225C10.886 7.5077 10.6472 7.26892 10.3527 7.26892C10.0581 7.26892 9.81934 7.5077 9.81934 7.80225C9.81934 8.09681 10.0581 8.33559 10.3527 8.33559Z" fill="#414651"/>
<path d="M25.286 6.20229H8.21937C8.07792 6.20229 7.94226 6.1461 7.84224 6.04608C7.74223 5.94606 7.68604 5.8104 7.68604 5.66895C7.68604 5.5275 7.74223 5.39185 7.84224 5.29183C7.94226 5.19181 8.07792 5.13562 8.21937 5.13562H25.286C25.4275 5.13562 25.5631 5.19181 25.6632 5.29183C25.7632 5.39185 25.8194 5.5275 25.8194 5.66895C25.8194 5.8104 25.7632 5.94606 25.6632 6.04608C25.5631 6.1461 25.4275 6.20229 25.286 6.20229Z" fill="#414651"/>
<path d="M9.81935 6.20227C9.71389 6.20225 9.61079 6.17095 9.52311 6.11235C9.43542 6.05374 9.36708 5.97046 9.32672 5.87302C9.28637 5.77558 9.27581 5.66836 9.29637 5.56492C9.31694 5.46148 9.36772 5.36646 9.44229 5.29187L13.709 1.0252C13.8095 0.92805 13.9443 0.874293 14.0841 0.875508C14.2239 0.876724 14.3577 0.932814 14.4566 1.0317C14.5555 1.13058 14.6116 1.26435 14.6128 1.40419C14.614 1.54403 14.5602 1.67875 14.4631 1.77933L10.1964 6.046C10.0964 6.14603 9.96079 6.20224 9.81935 6.20227Z" fill="#414651"/>
<path d="M14.6192 6.20227C14.5137 6.20225 14.4106 6.17095 14.3229 6.11235C14.2352 6.05374 14.1669 5.97046 14.1265 5.87302C14.0862 5.77558 14.0756 5.66836 14.0962 5.56492C14.1167 5.46148 14.1675 5.36646 14.2421 5.29187L18.5088 1.0252C18.6093 0.92805 18.7441 0.874293 18.8839 0.875508C19.0237 0.876724 19.1575 0.932814 19.2564 1.0317C19.3553 1.13058 19.4114 1.26435 19.4126 1.40419C19.4138 1.54403 19.36 1.67875 19.2629 1.77933L14.9962 6.046C14.8962 6.14603 14.7606 6.20224 14.6192 6.20227Z" fill="#414651"/>
<path d="M19.419 6.20227C19.3135 6.20225 19.2104 6.17095 19.1227 6.11235C19.035 6.05374 18.9667 5.97046 18.9263 5.87302C18.886 5.77558 18.8754 5.66836 18.896 5.56492C18.9166 5.46148 18.9673 5.36646 19.0419 5.29187L23.3086 1.0252C23.4091 0.92805 23.5439 0.874293 23.6837 0.875508C23.8235 0.876724 23.9573 0.932814 24.0562 1.0317C24.1551 1.13058 24.2112 1.26435 24.2124 1.40419C24.2136 1.54403 24.1598 1.67875 24.0627 1.77933L19.796 6.046C19.696 6.14603 19.5604 6.20224 19.419 6.20227Z" fill="#414651"/>
<path d="M16.7526 28.0689C15.0648 28.0689 13.415 27.5684 12.0117 26.6307C10.6084 25.6931 9.51467 24.3604 8.8688 22.8011C8.22294 21.2418 8.05395 19.5261 8.38321 17.8708C8.71247 16.2155 9.52519 14.695 10.7186 13.5016C11.912 12.3081 13.4325 11.4954 15.0878 11.1662C16.7431 10.8369 18.4589 11.0059 20.0181 11.6518C21.5774 12.2976 22.9101 13.3914 23.8478 14.7947C24.7854 16.198 25.2859 17.8478 25.2859 19.5355C25.2832 21.7979 24.3833 23.9668 22.7836 25.5666C21.1839 27.1663 19.0149 28.0662 16.7526 28.0689ZM16.7526 12.0689C15.2758 12.0689 13.8322 12.5068 12.6043 13.3272C11.3764 14.1477 10.4194 15.3138 9.85428 16.6782C9.28914 18.0425 9.14128 19.5438 9.42938 20.9922C9.71748 22.4406 10.4286 23.771 11.4728 24.8153C12.5171 25.8595 13.8475 26.5706 15.2959 26.8587C16.7443 27.1468 18.2456 26.999 19.6099 26.4338C20.9743 25.8687 22.1404 24.9117 22.9609 23.6838C23.7813 22.4559 24.2192 21.0123 24.2192 19.5355C24.2171 17.5559 23.4298 15.658 22.03 14.2581C20.6302 12.8583 18.7322 12.071 16.7526 12.0689Z" fill="#414651"/>
<path d="M15.6206 23.462C15.4106 23.4624 15.2026 23.4213 15.0085 23.3411C14.8144 23.261 14.638 23.1433 14.4894 22.9948L12.227 20.7319C12.0765 20.5838 11.9567 20.4073 11.8747 20.2127C11.7926 20.0181 11.7499 19.8091 11.749 19.5979C11.7482 19.3867 11.7891 19.1774 11.8695 18.9821C11.9499 18.7868 12.0682 18.6093 12.2175 18.46C12.3669 18.3106 12.5443 18.1923 12.7396 18.1118C12.9349 18.0314 13.1441 17.9904 13.3553 17.9912C13.5666 17.992 13.7755 18.0347 13.9702 18.1167C14.1648 18.1987 14.3413 18.3184 14.4894 18.4689L15.6212 19.6007L19.0153 16.206C19.3153 15.9061 19.7222 15.7375 20.1465 15.7375C20.5708 15.7375 20.9777 15.9061 21.2777 16.206C21.5772 16.5064 21.7453 16.9133 21.7453 17.3375C21.7453 17.7617 21.5772 18.1685 21.2777 18.4689L16.7524 22.9943C16.6039 23.143 16.4274 23.2608 16.2332 23.3411C16.039 23.4214 15.8308 23.4625 15.6206 23.462ZM13.3582 19.0673C13.2528 19.0674 13.1497 19.0987 13.062 19.1573C12.9743 19.2159 12.906 19.2992 12.8656 19.3966C12.8253 19.494 12.8147 19.6012 12.8353 19.7047C12.8558 19.8081 12.9066 19.9032 12.9812 19.9777L15.2436 22.2401C15.2931 22.2897 15.3519 22.3291 15.4167 22.3559C15.4814 22.3827 15.5508 22.3966 15.6209 22.3966C15.691 22.3966 15.7604 22.3827 15.8251 22.3559C15.8899 22.3291 15.9487 22.2897 15.9982 22.2401L20.5236 17.7148C20.5745 17.6656 20.6151 17.6068 20.6431 17.5417C20.671 17.4766 20.6858 17.4066 20.6864 17.3358C20.687 17.265 20.6735 17.1948 20.6467 17.1292C20.6199 17.0637 20.5803 17.0041 20.5302 16.9541C20.4801 16.904 20.4206 16.8644 20.355 16.8376C20.2895 16.8108 20.2192 16.7973 20.1484 16.7979C20.0776 16.7985 20.0076 16.8132 19.9426 16.8412C19.8775 16.8691 19.8186 16.9097 19.7694 16.9607L15.9982 20.7319C15.8963 20.8282 15.7614 20.8819 15.6212 20.8819C15.4809 20.8819 15.346 20.8282 15.2441 20.7319L13.7353 19.2231C13.6352 19.1232 13.4996 19.0672 13.3582 19.0673Z" fill="#414651"/>
</g>
<defs>
<clipPath id="clip0_4894_4975">
<rect width="32" height="32" fill="white" transform="translate(0.751953 0.868896)"/>
</clipPath>
</defs>
</svg>
