<svg width="32" height="33" viewBox="0 0 32 33" fill="none" xmlns="http://www.w3.org/2000/svg">
<g clip-path="url(#clip0_4894_1405)">
<mask id="mask0_4894_1405" style="mask-type:luminance" maskUnits="userSpaceOnUse" x="0" y="0" width="33" height="33">
<path d="M0.00195312 0.86487H32.002V32.8649H0.00195312V0.86487Z" fill="white"/>
</mask>
<g mask="url(#mask0_4894_1405)">
<path d="M21.2524 18.5304H16.147C16.147 18.5304 18.8501 13.6307 19.2962 13.0834C19.7472 12.53 20.1743 12.8752 20.215 13.3633C20.2557 13.8515 20.1947 20.9299 20.1947 20.9299" stroke="#414651" stroke-width="0.9375" stroke-miterlimit="10" stroke-linecap="round" stroke-linejoin="round"/>
<path d="M15.2187 20.99C15.2187 20.99 11.2631 21.0397 11.0757 20.9773C10.8883 20.9149 11.3761 20.5849 13.9696 16.8794C14.4539 16.1874 14.7205 15.6035 14.8339 15.1144L14.8741 14.7999C14.8741 13.651 13.9427 12.7196 12.7938 12.7196C11.7828 12.7196 10.9402 13.4407 10.7524 14.3967" stroke="#414651" stroke-width="0.9375" stroke-miterlimit="10" stroke-linecap="round" stroke-linejoin="round"/>
<path d="M24.1973 24.0452H26.9003C27.152 24.0452 27.3209 24.3039 27.2196 24.5344L24.8478 29.9299" stroke="#414651" stroke-width="0.9375" stroke-miterlimit="10" stroke-linecap="round" stroke-linejoin="round"/>
<path d="M31.5332 26.6784C31.5332 29.8359 28.9736 32.3955 25.8162 32.3955C22.6587 32.3955 20.0991 29.8359 20.0991 26.6784C20.0991 23.521 22.6587 20.9614 25.8162 20.9614C28.9736 20.9614 31.5332 23.521 31.5332 26.6784Z" stroke="#414651" stroke-width="0.9375" stroke-miterlimit="10" stroke-linecap="round" stroke-linejoin="round"/>
<path d="M28.936 21.8871C29.1091 21.4409 29.2585 20.9877 29.3836 20.5292C29.4599 20.2501 29.7085 20.0502 29.9979 20.0437C30.0074 20.0434 30.017 20.0433 30.0266 20.0433H30.0273C30.8621 20.0404 31.5366 19.3612 31.5336 18.5264L31.5216 15.0888C31.5187 14.2547 30.8388 13.5816 30.0047 13.5871H30.0041C29.9944 13.5871 29.9848 13.5871 29.9751 13.5869C29.6859 13.5823 29.4359 13.3844 29.3577 13.1057C29.0214 11.9067 28.5204 10.7446 27.8559 9.65406C27.9314 9.48206 28.0388 9.32187 28.1783 9.18431C28.7641 8.60625 28.7439 7.63725 28.16 7.05731L25.724 4.63837C25.136 4.05437 24.175 4.04044 23.5973 4.63462C23.5812 4.65119 23.5648 4.66725 23.5481 4.68287C23.3438 4.87456 23.0351 4.90112 22.7908 4.76387C21.7954 4.20456 20.7459 3.77744 19.6678 3.48306C19.3884 3.40675 19.1884 3.15794 19.1818 2.86831C19.1816 2.85888 19.1815 2.84944 19.1815 2.84V2.83931C19.176 2.00375 18.4955 1.33006 17.6599 1.333L14.217 1.34506C13.3842 1.348 12.7139 2.02987 12.7253 2.8625C12.7253 2.87212 12.7253 2.88162 12.7251 2.89112C12.7206 3.18069 12.5224 3.43081 12.2436 3.509C11.1675 3.81094 10.1209 4.24544 9.12933 4.81181C8.88614 4.95069 8.57745 4.92619 8.37176 4.73606C8.35501 4.72056 8.33845 4.70462 8.32233 4.68819C7.74033 4.09806 6.77951 4.11856 6.19545 4.70669L3.77658 7.14256C3.19664 7.72656 3.18314 8.69575 3.77308 9.26956C3.77964 9.276 3.78614 9.28244 3.79258 9.28894C4.00183 9.50012 4.04289 9.82469 3.89745 10.084C3.34045 11.077 2.91489 12.1236 2.62133 13.1987C2.54301 13.4855 2.2812 13.6835 1.98389 13.6851L1.9782 13.6852H1.97758C1.14195 13.6907 0.468326 14.3712 0.471201 15.2068L0.483202 18.635C0.486139 19.4698 1.16526 20.1442 2.00014 20.1413H2.00076C2.01026 20.1412 2.01964 20.1413 2.02908 20.1415C2.31876 20.146 2.56901 20.3442 2.64726 20.6232C2.94889 21.6982 3.38276 22.7435 3.94814 23.7341C4.0937 23.9892 4.0547 24.3092 3.85039 24.5201C3.84245 24.5283 3.83445 24.5364 3.82626 24.5444C3.24039 25.1221 3.26101 26.0914 3.84489 26.6712L6.28076 29.0901C6.86889 29.6741 7.82983 29.6879 8.4077 29.0937C8.42376 29.0771 8.44014 29.0611 8.45683 29.0454C8.66114 28.8539 8.96964 28.8272 9.21376 28.9644C10.2094 29.5238 11.259 29.951 12.3372 30.2454C12.6165 30.3216 12.8164 30.5704 12.823 30.8598C12.8232 30.8694 12.8233 30.8789 12.8233 30.8884V30.8891C12.8233 31.7231 13.501 32.3984 14.335 32.3955L17.758 32.3834C18.5954 32.3806 19.2741 31.7037 19.2795 30.8665L19.2796 30.8658C19.2795 30.8566 19.2796 30.8473 19.2797 30.8381C19.2841 30.5481 19.4828 30.2975 19.762 30.2191C20.1882 30.0996 20.6094 29.9583 21.0248 29.7972" stroke="#414651" stroke-width="0.9375" stroke-miterlimit="10" stroke-linecap="round" stroke-linejoin="round"/>
<path d="M27.0311 18.9303C27.1559 18.2606 27.2211 17.57 27.2211 16.8641C27.2211 10.6682 22.1983 5.64533 16.0024 5.64533C9.80644 5.64533 4.78369 10.6682 4.78369 16.8641C4.78369 23.06 9.80644 28.0828 16.0024 28.0828C16.7083 28.0828 17.3989 28.0175 18.0686 27.8928" stroke="#414651" stroke-width="0.9375" stroke-miterlimit="10" stroke-linecap="round" stroke-linejoin="round"/>
<path d="M24.9601 18.8935C25.1073 18.2411 25.185 17.5623 25.185 16.8654C25.185 11.7938 21.0736 7.68259 16.0021 7.68259C10.9306 7.68259 6.81934 11.7938 6.81934 16.8654C6.81934 21.9369 10.9306 26.0482 16.0021 26.0482C16.6956 26.0482 17.3711 25.9713 18.0206 25.8256" stroke="#414651" stroke-width="0.9375" stroke-miterlimit="10" stroke-linecap="round" stroke-linejoin="round"/>
</g>
</g>
<defs>
<clipPath id="clip0_4894_1405">
<rect width="32" height="32" fill="white" transform="translate(0.000488281 0.868286)"/>
</clipPath>
</defs>
</svg>
